<svg id="Layer_1" data-name="Layer 1" xmlns="http://www.w3.org/2000/svg" viewBox="0 0 1440.5 179"><path d="M.83,163.16c3.3,0,5.71,2.65,5.71,6.5s-2.41,6.5-5.71,6.5-5.73-2.65-5.73-6.5S-2.48,163.16.83,163.16Zm0,1.49c-2.37,0-4,2-4,5s1.67,5,4,5,4-2,4-5S3.2,164.65.83,164.65Z"/><path d="M11.31,176,6.52,163.35H8.33l3.9,10.51,3.9-10.51h1.72L13.09,176Z"/><path d="M27.42,163.35v1.48H20.85v3.88h5.57v1.48H20.85v4.3h6.57V176H19.18V163.35Z"/><path d="M31,176H29.28V163.35h4.81c2.67,0,4.38,1.25,4.38,3.66a3.45,3.45,0,0,1-3.24,3.58l3.5,5.38H36.8l-3.39-5.29H31Zm3-6.75c1.8,0,2.8-.79,2.8-2.21s-1-2.2-2.8-2.2H31v4.41Z"/><path d="M43.66,163.35h4c3.83,0,6.25,2.46,6.25,6.31S51.5,176,47.67,176h-4Zm4,11.16c2.86,0,4.6-1.92,4.6-4.85s-1.74-4.85-4.62-4.85H45.31v9.7Z"/><path d="M57.31,176H55.62V163.35h1.69Z"/><path d="M59.73,172.31a4.29,4.29,0,0,0,3.85,2.39c1.63,0,2.9-.81,2.9-2.25s-1.46-1.79-3.37-2.24-4-1-4-3.39c0-2.22,1.92-3.66,4.31-3.66A4.92,4.92,0,0,1,68,165.64l-1.28,1a3.49,3.49,0,0,0-3.29-2c-1.53,0-2.63.84-2.63,2s1.18,1.62,3,2c2.09.49,4.39.93,4.39,3.6,0,2.36-2.09,3.85-4.58,3.85a5.74,5.74,0,0,1-5.13-2.79Z"/><path d="M74.63,174.67a3.26,3.26,0,0,0,3.27-2.55l1.59.53a4.88,4.88,0,0,1-4.86,3.51c-3.27,0-5.68-2.65-5.68-6.5s2.41-6.5,5.68-6.5a4.89,4.89,0,0,1,4.86,3.51l-1.59.53a3.26,3.26,0,0,0-3.27-2.55c-2.34,0-4,2-4,5S72.29,174.67,74.63,174.67Z"/><path d="M85.9,163.16c3.31,0,5.71,2.65,5.71,6.5s-2.4,6.5-5.71,6.5-5.72-2.65-5.72-6.5S82.6,163.16,85.9,163.16Zm0,1.49c-2.37,0-4,2-4,5s1.67,5,4,5,4-2,4-5S88.28,164.65,85.9,164.65Z"/><path d="M96.39,176,91.6,163.35h1.8l3.9,10.51,3.9-10.51h1.73L98.16,176Z"/><path d="M112.5,163.35v1.48h-6.57v3.88h5.57v1.48h-5.57v4.3h6.57V176h-8.24V163.35Z"/><path d="M116,176h-1.68V163.35h4.81c2.67,0,4.37,1.25,4.37,3.66a3.44,3.44,0,0,1-3.23,3.58l3.5,5.38h-1.93l-3.39-5.29H116Zm3-6.75c1.79,0,2.8-.79,2.8-2.21s-1-2.2-2.8-2.2h-3v4.41Z"/><path d="M128.74,163.35h4c3.83,0,6.25,2.46,6.25,6.31s-2.42,6.31-6.25,6.31h-4Zm4,11.16c2.86,0,4.6-1.92,4.6-4.85s-1.74-4.85-4.62-4.85h-2.34v9.7Z"/><path d="M142.39,176H140.7V163.35h1.69Z"/><path d="M144.81,172.31a4.29,4.29,0,0,0,3.85,2.39c1.63,0,2.9-.81,2.9-2.25s-1.46-1.79-3.37-2.24-4-1-4-3.39c0-2.22,1.92-3.66,4.31-3.66a4.94,4.94,0,0,1,4.53,2.48l-1.28,1a3.49,3.49,0,0,0-3.29-2c-1.53,0-2.63.84-2.63,2s1.17,1.62,2.95,2c2.09.49,4.39.93,4.39,3.6,0,2.36-2.09,3.85-4.59,3.85a5.76,5.76,0,0,1-5.13-2.79Z"/><path d="M159.71,174.67a3.25,3.25,0,0,0,3.26-2.55l1.6.53a4.89,4.89,0,0,1-4.86,3.51c-3.27,0-5.68-2.65-5.68-6.5s2.41-6.5,5.68-6.5a4.9,4.9,0,0,1,4.86,3.51l-1.6.53a3.25,3.25,0,0,0-3.26-2.55c-2.34,0-4,2-4,5S157.37,174.67,159.71,174.67Z"/><path d="M171,163.16c3.31,0,5.71,2.65,5.71,6.5s-2.4,6.5-5.71,6.5-5.72-2.65-5.72-6.5S167.68,163.16,171,163.16Zm0,1.49c-2.37,0-4,2-4,5s1.67,5,4,5,4-2,4-5S173.35,164.65,171,164.65Z"/><path d="M181.47,176l-4.8-12.62h1.81l3.9,10.51,3.9-10.51H188L183.24,176Z"/><path d="M197.58,163.35v1.48H191v3.88h5.56v1.48H191v4.3h6.57V176h-8.24V163.35Z"/><path d="M201.12,176h-1.68V163.35h4.81c2.67,0,4.37,1.25,4.37,3.66a3.45,3.45,0,0,1-3.23,3.58l3.5,5.38H207l-3.39-5.29h-2.44Zm3-6.75c1.79,0,2.79-.79,2.79-2.21s-1-2.2-2.79-2.2h-3v4.41Z"/><path d="M213.82,163.35h4c3.83,0,6.26,2.46,6.26,6.31s-2.43,6.31-6.26,6.31h-4Zm4,11.16c2.87,0,4.61-1.92,4.61-4.85s-1.74-4.85-4.62-4.85h-2.34v9.7Z"/><path d="M227.47,176h-1.69V163.35h1.69Z"/><path d="M229.89,172.31a4.28,4.28,0,0,0,3.85,2.39c1.63,0,2.9-.81,2.9-2.25s-1.46-1.79-3.38-2.24-3.95-1-3.95-3.39c0-2.22,1.92-3.66,4.3-3.66a4.94,4.94,0,0,1,4.54,2.48l-1.29,1a3.49,3.49,0,0,0-3.28-2c-1.53,0-2.64.84-2.64,2s1.18,1.62,2.95,2c2.1.49,4.4.93,4.4,3.6,0,2.36-2.09,3.85-4.59,3.85a5.74,5.74,0,0,1-5.13-2.79Z"/><path d="M244.79,174.67a3.25,3.25,0,0,0,3.26-2.55l1.6.53a4.89,4.89,0,0,1-4.86,3.51c-3.27,0-5.68-2.65-5.68-6.5s2.41-6.5,5.68-6.5a4.9,4.9,0,0,1,4.86,3.51l-1.6.53a3.25,3.25,0,0,0-3.26-2.55c-2.34,0-4,2-4,5S242.45,174.67,244.79,174.67Z"/><path d="M256.06,163.16c3.3,0,5.71,2.65,5.71,6.5s-2.41,6.5-5.71,6.5-5.73-2.65-5.73-6.5S252.76,163.16,256.06,163.16Zm0,1.49c-2.37,0-4,2-4,5s1.67,5,4,5,4-2,4-5S258.43,164.65,256.06,164.65Z"/><path d="M266.55,176l-4.8-12.62h1.81l3.9,10.51,3.9-10.51h1.72L268.32,176Z"/><path d="M282.65,163.35v1.48h-6.57v3.88h5.57v1.48h-5.57v4.3h6.57V176h-8.24V163.35Z"/><path d="M286.2,176h-1.69V163.35h4.82c2.67,0,4.37,1.25,4.37,3.66a3.45,3.45,0,0,1-3.23,3.58L294,176H292l-3.39-5.29H286.2Zm3-6.75c1.79,0,2.79-.79,2.79-2.21s-1-2.2-2.79-2.2h-3v4.41Z"/><path d="M298.9,163.35h4c3.83,0,6.26,2.46,6.26,6.31S306.73,176,302.9,176h-4Zm4,11.16c2.87,0,4.61-1.92,4.61-4.85s-1.74-4.85-4.62-4.85h-2.34v9.7Z"/><path d="M312.54,176h-1.68V163.35h1.68Z"/><path d="M315,172.31a4.28,4.28,0,0,0,3.85,2.39c1.63,0,2.89-.81,2.89-2.25s-1.45-1.79-3.37-2.24-3.95-1-3.95-3.39c0-2.22,1.91-3.66,4.3-3.66a4.91,4.91,0,0,1,4.53,2.48l-1.28,1a3.49,3.49,0,0,0-3.28-2c-1.53,0-2.64.84-2.64,2s1.18,1.62,3,2c2.09.49,4.39.93,4.39,3.6,0,2.36-2.09,3.85-4.58,3.85a5.74,5.74,0,0,1-5.13-2.79Z"/><path d="M329.86,174.67a3.26,3.26,0,0,0,3.27-2.55l1.6.53a4.89,4.89,0,0,1-4.87,3.51c-3.26,0-5.67-2.65-5.67-6.5s2.41-6.5,5.67-6.5a4.9,4.9,0,0,1,4.87,3.51l-1.6.53a3.26,3.26,0,0,0-3.27-2.55c-2.33,0-4,2-4,5S327.53,174.67,329.86,174.67Z"/><path d="M341.14,163.16c3.3,0,5.71,2.65,5.71,6.5s-2.41,6.5-5.71,6.5-5.73-2.65-5.73-6.5S337.84,163.16,341.14,163.16Zm0,1.49c-2.37,0-4,2-4,5s1.67,5,4,5,4-2,4-5S343.51,164.65,341.14,164.65Z"/><path d="M351.62,176l-4.79-12.62h1.81l3.9,10.51,3.9-10.51h1.72L353.4,176Z"/><path d="M367.73,163.35v1.48h-6.57v3.88h5.57v1.48h-5.57v4.3h6.57V176h-8.24V163.35Z"/><path d="M371.28,176h-1.69V163.35h4.81c2.67,0,4.38,1.25,4.38,3.66a3.45,3.45,0,0,1-3.23,3.58L379,176h-1.93l-3.39-5.29h-2.44Zm3-6.75c1.79,0,2.79-.79,2.79-2.21s-1-2.2-2.79-2.2h-3v4.41Z"/><path d="M384,163.35h4c3.83,0,6.25,2.46,6.25,6.31S391.81,176,388,176h-4Zm4,11.16c2.86,0,4.6-1.92,4.6-4.85s-1.74-4.85-4.62-4.85h-2.33v9.7Z"/><path d="M397.62,176h-1.68V163.35h1.68Z"/><path d="M400.05,172.31a4.27,4.27,0,0,0,3.84,2.39c1.64,0,2.9-.81,2.9-2.25s-1.46-1.79-3.37-2.24-3.95-1-3.95-3.39c0-2.22,1.91-3.66,4.3-3.66a4.91,4.91,0,0,1,4.53,2.48l-1.28,1a3.49,3.49,0,0,0-3.29-2c-1.52,0-2.63.84-2.63,2s1.18,1.62,2.95,2c2.09.49,4.39.93,4.39,3.6,0,2.36-2.09,3.85-4.58,3.85a5.74,5.74,0,0,1-5.13-2.79Z"/><path d="M414.94,174.67a3.26,3.26,0,0,0,3.27-2.55l1.6.53a4.89,4.89,0,0,1-4.87,3.51c-3.27,0-5.67-2.65-5.67-6.5s2.4-6.5,5.67-6.5a4.9,4.9,0,0,1,4.87,3.51l-1.6.53a3.26,3.26,0,0,0-3.27-2.55c-2.34,0-4,2-4,5S412.6,174.67,414.94,174.67Z"/><path d="M426.22,163.16c3.3,0,5.71,2.65,5.71,6.5s-2.41,6.5-5.71,6.5-5.73-2.65-5.73-6.5S422.91,163.16,426.22,163.16Zm0,1.49c-2.37,0-4,2-4,5s1.67,5,4,5,4-2,4-5S428.59,164.65,426.22,164.65Z"/><path d="M436.7,176l-4.79-12.62h1.81l3.9,10.51,3.89-10.51h1.73L438.48,176Z"/><path d="M452.81,163.35v1.48h-6.57v3.88h5.57v1.48h-5.57v4.3h6.57V176h-8.24V163.35Z"/><path d="M456.35,176h-1.68V163.35h4.81c2.67,0,4.38,1.25,4.38,3.66a3.45,3.45,0,0,1-3.24,3.58l3.5,5.38h-1.93l-3.39-5.29h-2.45Zm3-6.75c1.8,0,2.8-.79,2.8-2.21s-1-2.2-2.8-2.2h-3v4.41Z"/><path d="M469.05,163.35h4c3.83,0,6.25,2.46,6.25,6.31s-2.42,6.31-6.25,6.31h-4Zm4,11.16c2.86,0,4.6-1.92,4.6-4.85s-1.74-4.85-4.62-4.85H470.7v9.7Z"/><path d="M482.7,176H481V163.35h1.69Z"/><path d="M485.12,172.31A4.29,4.29,0,0,0,489,174.7c1.63,0,2.9-.81,2.9-2.25s-1.46-1.79-3.37-2.24-4-1-4-3.39c0-2.22,1.92-3.66,4.31-3.66a4.94,4.94,0,0,1,4.53,2.48l-1.28,1a3.49,3.49,0,0,0-3.29-2c-1.53,0-2.63.84-2.63,2s1.17,1.62,2.95,2c2.09.49,4.39.93,4.39,3.6,0,2.36-2.09,3.85-4.58,3.85a5.74,5.74,0,0,1-5.13-2.79Z"/><path d="M500,174.67a3.26,3.26,0,0,0,3.27-2.55l1.59.53a4.88,4.88,0,0,1-4.86,3.51c-3.27,0-5.68-2.65-5.68-6.5s2.41-6.5,5.68-6.5a4.89,4.89,0,0,1,4.86,3.51l-1.59.53a3.26,3.26,0,0,0-3.27-2.55c-2.34,0-4,2-4,5S497.68,174.67,500,174.67Z"/><path d="M511.29,163.16c3.31,0,5.71,2.65,5.71,6.5s-2.4,6.5-5.71,6.5-5.72-2.65-5.72-6.5S508,163.16,511.29,163.16Zm0,1.49c-2.37,0-4,2-4,5s1.67,5,4,5,4-2,4-5S513.67,164.65,511.29,164.65Z"/><path d="M521.78,176,517,163.35h1.81l3.9,10.51,3.9-10.51h1.72L523.55,176Z"/><path d="M537.89,163.35v1.48h-6.57v3.88h5.56v1.48h-5.56v4.3h6.57V176h-8.24V163.35Z"/><path d="M541.43,176h-1.68V163.35h4.81c2.67,0,4.37,1.25,4.37,3.66a3.45,3.45,0,0,1-3.23,3.58l3.5,5.38h-1.94l-3.38-5.29h-2.45Zm3-6.75c1.79,0,2.79-.79,2.79-2.21s-1-2.2-2.79-2.2h-3v4.41Z"/><path d="M-8.19,145.4h4c3.83,0,6.26,2.46,6.26,6.3S-.36,158-4.19,158h-4Zm4,11.15c2.87,0,4.61-1.91,4.61-4.85s-1.74-4.84-4.62-4.84H-6.54v9.69Z"/><path d="M5.46,158H3.77V145.4H5.46Z"/><path d="M7.88,154.36a4.28,4.28,0,0,0,3.85,2.39c1.63,0,2.9-.81,2.9-2.25s-1.46-1.79-3.38-2.25-3.95-1-3.95-3.39c0-2.21,1.92-3.65,4.3-3.65a4.93,4.93,0,0,1,4.54,2.47l-1.29,1a3.5,3.5,0,0,0-3.28-2c-1.53,0-2.64.85-2.64,2.06s1.18,1.61,3,2c2.1.49,4.4.93,4.4,3.6,0,2.35-2.09,3.84-4.59,3.84a5.74,5.74,0,0,1-5.13-2.79Z"/><path d="M22.77,156.71A3.25,3.25,0,0,0,26,154.16l1.6.53a4.89,4.89,0,0,1-4.87,3.51c-3.26,0-5.67-2.65-5.67-6.5s2.41-6.49,5.67-6.49a4.89,4.89,0,0,1,4.87,3.51l-1.6.53a3.25,3.25,0,0,0-3.27-2.55c-2.33,0-4,2-4,5S20.44,156.71,22.77,156.71Z"/><path d="M34.05,145.21c3.3,0,5.71,2.65,5.71,6.49s-2.41,6.5-5.71,6.5-5.73-2.65-5.73-6.5S30.75,145.21,34.05,145.21Zm0,1.49c-2.37,0-4,2-4,5s1.67,5,4,5,4-2,4-5S36.42,146.7,34.05,146.7Z"/><path d="M44.54,158l-4.8-12.61h1.81l3.9,10.5,3.9-10.5h1.72L46.31,158Z"/><path d="M60.64,145.4v1.47H54.07v3.89h5.57v1.47H54.07v4.31h6.57V158H52.4V145.4Z"/><path d="M64.19,158H62.5V145.4h4.82c2.67,0,4.37,1.25,4.37,3.65a3.47,3.47,0,0,1-3.23,3.59L72,158H70l-3.39-5.29H64.19Zm3-6.74c1.79,0,2.79-.8,2.79-2.22s-1-2.19-2.79-2.19h-3v4.41Z"/><path d="M76.89,145.4h4c3.83,0,6.26,2.46,6.26,6.3S84.72,158,80.89,158h-4Zm4,11.15c2.87,0,4.6-1.91,4.6-4.85s-1.73-4.84-4.62-4.84H78.54v9.69Z"/><path d="M90.53,158H88.85V145.4h1.68Z"/><path d="M93,154.36a4.27,4.27,0,0,0,3.84,2.39c1.64,0,2.9-.81,2.9-2.25s-1.45-1.79-3.37-2.25-4-1-4-3.39c0-2.21,1.91-3.65,4.3-3.65a4.91,4.91,0,0,1,4.53,2.47l-1.28,1a3.5,3.5,0,0,0-3.28-2c-1.53,0-2.64.85-2.64,2.06s1.18,1.61,2.95,2c2.09.49,4.39.93,4.39,3.6,0,2.35-2.09,3.84-4.58,3.84a5.74,5.74,0,0,1-5.13-2.79Z"/><path d="M107.85,156.71a3.26,3.26,0,0,0,3.27-2.55l1.6.53a4.89,4.89,0,0,1-4.87,3.51c-3.26,0-5.67-2.65-5.67-6.5s2.41-6.49,5.67-6.49a4.89,4.89,0,0,1,4.87,3.51l-1.6.53a3.26,3.26,0,0,0-3.27-2.55c-2.33,0-4,2-4,5S105.52,156.71,107.85,156.71Z"/><path d="M119.13,145.21c3.3,0,5.71,2.65,5.71,6.49s-2.41,6.5-5.71,6.5-5.73-2.65-5.73-6.5S115.83,145.21,119.13,145.21Zm0,1.49c-2.37,0-4,2-4,5s1.67,5,4,5,4-2,4-5S121.5,146.7,119.13,146.7Z"/><path d="M129.61,158l-4.79-12.61h1.81l3.9,10.5,3.9-10.5h1.72L131.39,158Z"/><path d="M145.72,145.4v1.47h-6.57v3.89h5.57v1.47h-5.57v4.31h6.57V158h-8.24V145.4Z"/><path d="M149.27,158h-1.69V145.4h4.81c2.67,0,4.38,1.25,4.38,3.65a3.47,3.47,0,0,1-3.23,3.59L157,158H155.1l-3.39-5.29h-2.44Zm3-6.74c1.79,0,2.79-.8,2.79-2.22s-1-2.19-2.79-2.19h-3v4.41Z"/><path d="M162,145.4h4c3.83,0,6.25,2.46,6.25,6.3S169.8,158,166,158h-4Zm4,11.15c2.86,0,4.6-1.91,4.6-4.85s-1.74-4.84-4.62-4.84h-2.33v9.69Z"/><path d="M175.61,158h-1.68V145.4h1.68Z"/><path d="M178,154.36a4.27,4.27,0,0,0,3.84,2.39c1.64,0,2.9-.81,2.9-2.25s-1.46-1.79-3.37-2.25-3.95-1-3.95-3.39c0-2.21,1.91-3.65,4.3-3.65a4.91,4.91,0,0,1,4.53,2.47l-1.28,1a3.51,3.51,0,0,0-3.29-2c-1.52,0-2.63.85-2.63,2.06s1.18,1.61,2.95,2c2.09.49,4.39.93,4.39,3.6,0,2.35-2.09,3.84-4.58,3.84a5.74,5.74,0,0,1-5.13-2.79Z"/><path d="M192.93,156.71a3.26,3.26,0,0,0,3.27-2.55l1.6.53a4.89,4.89,0,0,1-4.87,3.51c-3.27,0-5.67-2.65-5.67-6.5s2.4-6.49,5.67-6.49a4.89,4.89,0,0,1,4.87,3.51l-1.6.53a3.26,3.26,0,0,0-3.27-2.55c-2.34,0-4,2-4,5S190.59,156.71,192.93,156.71Z"/><path d="M204.21,145.21c3.3,0,5.71,2.65,5.71,6.49s-2.41,6.5-5.71,6.5-5.73-2.65-5.73-6.5S200.9,145.21,204.21,145.21Zm0,1.49c-2.37,0-4,2-4,5s1.67,5,4,5,4-2,4-5S206.58,146.7,204.21,146.7Z"/><path d="M214.69,158,209.9,145.4h1.81l3.9,10.5,3.9-10.5h1.72L216.47,158Z"/><path d="M230.8,145.4v1.47h-6.57v3.89h5.57v1.47h-5.57v4.31h6.57V158h-8.24V145.4Z"/><path d="M234.35,158h-1.69V145.4h4.81c2.67,0,4.38,1.25,4.38,3.65a3.47,3.47,0,0,1-3.24,3.59l3.5,5.37h-1.93l-3.39-5.29h-2.44Zm3-6.74c1.8,0,2.8-.8,2.8-2.22s-1-2.19-2.8-2.19h-3v4.41Z"/><path d="M247,145.4h4c3.83,0,6.25,2.46,6.25,6.3s-2.42,6.31-6.25,6.31h-4Zm4,11.15c2.86,0,4.6-1.91,4.6-4.85s-1.74-4.84-4.62-4.84H248.7v9.69Z"/><path d="M260.69,158H259V145.4h1.69Z"/><path d="M263.11,154.36a4.3,4.3,0,0,0,3.85,2.39c1.63,0,2.9-.81,2.9-2.25s-1.46-1.79-3.37-2.25-3.95-1-3.95-3.39c0-2.21,1.91-3.65,4.3-3.65a4.92,4.92,0,0,1,4.53,2.47l-1.28,1a3.51,3.51,0,0,0-3.29-2c-1.52,0-2.63.85-2.63,2.06s1.18,1.61,2.95,2c2.09.49,4.39.93,4.39,3.6,0,2.35-2.09,3.84-4.58,3.84a5.74,5.74,0,0,1-5.13-2.79Z"/><path d="M278,156.71a3.26,3.26,0,0,0,3.27-2.55l1.59.53A4.88,4.88,0,0,1,278,158.2c-3.27,0-5.68-2.65-5.68-6.5s2.41-6.49,5.68-6.49a4.88,4.88,0,0,1,4.86,3.51l-1.59.53A3.26,3.26,0,0,0,278,146.7c-2.34,0-4,2-4,5S275.67,156.71,278,156.71Z"/><path d="M289.28,145.21c3.31,0,5.71,2.65,5.71,6.49s-2.4,6.5-5.71,6.5-5.72-2.65-5.72-6.5S286,145.21,289.28,145.21Zm0,1.49c-2.37,0-4,2-4,5s1.67,5,4,5,4.05-2,4.05-5S291.66,146.7,289.28,146.7Z"/><path d="M299.77,158,295,145.4h1.81l3.9,10.5,3.9-10.5h1.72L301.54,158Z"/><path d="M315.88,145.4v1.47h-6.57v3.89h5.57v1.47h-5.57v4.31h6.57V158h-8.24V145.4Z"/><path d="M319.42,158h-1.68V145.4h4.81c2.67,0,4.37,1.25,4.37,3.65a3.47,3.47,0,0,1-3.23,3.59l3.5,5.37h-1.93l-3.39-5.29h-2.45Zm3-6.74c1.79,0,2.8-.8,2.8-2.22s-1-2.19-2.8-2.19h-3v4.41Z"/><path d="M332.12,145.4h4c3.83,0,6.25,2.46,6.25,6.3S340,158,336.13,158h-4Zm4,11.15c2.86,0,4.6-1.91,4.6-4.85s-1.74-4.84-4.62-4.84h-2.34v9.69Z"/><path d="M345.77,158h-1.69V145.4h1.69Z"/><path d="M348.19,154.36a4.29,4.29,0,0,0,3.85,2.39c1.63,0,2.9-.81,2.9-2.25s-1.46-1.79-3.38-2.25-3.95-1-3.95-3.39c0-2.21,1.92-3.65,4.31-3.65a4.93,4.93,0,0,1,4.53,2.47l-1.28,1a3.52,3.52,0,0,0-3.29-2c-1.53,0-2.63.85-2.63,2.06s1.17,1.61,2.95,2c2.09.49,4.39.93,4.39,3.6,0,2.35-2.09,3.84-4.59,3.84a5.76,5.76,0,0,1-5.13-2.79Z"/><path d="M363.09,156.71a3.25,3.25,0,0,0,3.26-2.55l1.6.53a4.89,4.89,0,0,1-4.86,3.51c-3.27,0-5.68-2.65-5.68-6.5s2.41-6.49,5.68-6.49a4.89,4.89,0,0,1,4.86,3.51l-1.6.53a3.25,3.25,0,0,0-3.26-2.55c-2.34,0-4,2-4,5S360.75,156.71,363.09,156.71Z"/><path d="M374.36,145.21c3.31,0,5.71,2.65,5.71,6.49s-2.4,6.5-5.71,6.5-5.72-2.65-5.72-6.5S371.06,145.21,374.36,145.21Zm0,1.49c-2.37,0-4,2-4,5s1.67,5,4,5,4-2,4-5S376.73,146.7,374.36,146.7Z"/><path d="M384.85,158l-4.8-12.61h1.81l3.9,10.5,3.9-10.5h1.72L386.62,158Z"/><path d="M401,145.4v1.47h-6.56v3.89H400v1.47h-5.56v4.31H401V158h-8.23V145.4Z"/><path d="M404.5,158h-1.68V145.4h4.81c2.67,0,4.37,1.25,4.37,3.65a3.47,3.47,0,0,1-3.23,3.59l3.5,5.37h-1.94l-3.39-5.29H404.5Zm3-6.74c1.79,0,2.79-.8,2.79-2.22s-1-2.19-2.79-2.19h-3v4.41Z"/><path d="M417.2,145.4h4c3.83,0,6.26,2.46,6.26,6.3S425,158,421.2,158h-4Zm4,11.15c2.87,0,4.61-1.91,4.61-4.85s-1.74-4.84-4.62-4.84h-2.34v9.69Z"/><path d="M430.85,158h-1.69V145.4h1.69Z"/><path d="M433.27,154.36a4.28,4.28,0,0,0,3.85,2.39c1.63,0,2.9-.81,2.9-2.25s-1.46-1.79-3.38-2.25-3.95-1-3.95-3.39c0-2.21,1.92-3.65,4.3-3.65a4.93,4.93,0,0,1,4.54,2.47l-1.29,1a3.5,3.5,0,0,0-3.28-2c-1.53,0-2.64.85-2.64,2.06s1.18,1.61,2.95,2c2.1.49,4.4.93,4.4,3.6,0,2.35-2.09,3.84-4.59,3.84a5.74,5.74,0,0,1-5.13-2.79Z"/><path d="M448.16,156.71a3.25,3.25,0,0,0,3.27-2.55l1.6.53a4.89,4.89,0,0,1-4.87,3.51c-3.26,0-5.67-2.65-5.67-6.5s2.41-6.49,5.67-6.49a4.89,4.89,0,0,1,4.87,3.51l-1.6.53a3.25,3.25,0,0,0-3.27-2.55c-2.33,0-4,2-4,5S445.83,156.71,448.16,156.71Z"/><path d="M459.44,145.21c3.3,0,5.71,2.65,5.71,6.49s-2.41,6.5-5.71,6.5-5.73-2.65-5.73-6.5S456.14,145.21,459.44,145.21Zm0,1.49c-2.37,0-4,2-4,5s1.67,5,4,5,4-2,4-5S461.81,146.7,459.44,146.7Z"/><path d="M469.93,158l-4.8-12.61h1.81l3.9,10.5,3.9-10.5h1.72L471.7,158Z"/><path d="M486,145.4v1.47h-6.57v3.89H485v1.47h-5.57v4.31H486V158h-8.24V145.4Z"/><path d="M489.58,158h-1.69V145.4h4.82c2.67,0,4.37,1.25,4.37,3.65a3.47,3.47,0,0,1-3.23,3.59l3.49,5.37h-1.93L492,152.72h-2.44Zm3-6.74c1.79,0,2.79-.8,2.79-2.22s-1-2.19-2.79-2.19h-3v4.41Z"/><path d="M8.73,127.44v1.48H2.16v3.88H7.73v1.48H2.16v4.3H8.73v1.47H.49V127.44Z"/><path d="M12.27,140.05H10.59V127.44H15.4c2.67,0,4.37,1.25,4.37,3.66a3.45,3.45,0,0,1-3.23,3.58l3.5,5.37H18.1l-3.38-5.28H12.27Zm3-6.74c1.79,0,2.79-.79,2.79-2.21s-1-2.2-2.79-2.2h-3v4.41Z"/><path d="M25,127.44h4c3.83,0,6.25,2.46,6.25,6.31s-2.42,6.3-6.25,6.3H25Zm4,11.16c2.86,0,4.6-1.92,4.6-4.85S31.84,128.9,29,128.9H26.62v9.7Z"/><path d="M38.62,140.05H36.93V127.44h1.69Z"/><path d="M41,136.4a4.29,4.29,0,0,0,3.85,2.39c1.63,0,2.9-.81,2.9-2.25s-1.46-1.79-3.38-2.25-3.95-1-3.95-3.39c0-2.21,1.92-3.65,4.31-3.65a4.92,4.92,0,0,1,4.53,2.48l-1.28,1a3.51,3.51,0,0,0-3.29-2c-1.53,0-2.63.84-2.63,2s1.17,1.62,2.95,2c2.09.49,4.39.93,4.39,3.6,0,2.35-2.09,3.85-4.59,3.85a5.74,5.74,0,0,1-5.13-2.8Z"/><path d="M55.94,138.75a3.24,3.24,0,0,0,3.26-2.54l1.6.52a4.9,4.9,0,0,1-4.86,3.52c-3.27,0-5.68-2.65-5.68-6.5s2.41-6.5,5.68-6.5a4.89,4.89,0,0,1,4.86,3.51l-1.6.53a3.25,3.25,0,0,0-3.26-2.55c-2.34,0-4,2-4,5S53.6,138.75,55.94,138.75Z"/><path d="M67.21,127.25c3.3,0,5.71,2.65,5.71,6.5s-2.41,6.5-5.71,6.5-5.72-2.65-5.72-6.5S63.91,127.25,67.21,127.25Zm0,1.49c-2.37,0-4,2-4,5s1.67,5,4,5,4-2,4-5S69.58,128.74,67.21,128.74Z"/><path d="M77.7,140.05l-4.8-12.61h1.81L78.61,138l3.9-10.51h1.72l-4.76,12.61Z"/><path d="M93.8,127.44v1.48H87.24v3.88H92.8v1.48H87.24v4.3H93.8v1.47H85.57V127.44Z"/><path d="M97.35,140.05H95.67V127.44h4.81c2.67,0,4.37,1.25,4.37,3.66a3.45,3.45,0,0,1-3.23,3.58l3.5,5.37h-1.94l-3.39-5.28H97.35Zm3-6.74c1.79,0,2.79-.79,2.79-2.21s-1-2.2-2.79-2.2h-3v4.41Z"/><path d="M110.05,127.44h4c3.83,0,6.26,2.46,6.26,6.31s-2.43,6.3-6.26,6.3h-4Zm4,11.16c2.87,0,4.61-1.92,4.61-4.85s-1.74-4.85-4.62-4.85H111.7v9.7Z"/><path d="M123.7,140.05H122V127.44h1.69Z"/><path d="M126.12,136.4a4.28,4.28,0,0,0,3.85,2.39c1.63,0,2.9-.81,2.9-2.25s-1.46-1.79-3.38-2.25-4-1-4-3.39c0-2.21,1.92-3.65,4.3-3.65a4.92,4.92,0,0,1,4.54,2.48l-1.29,1a3.5,3.5,0,0,0-3.28-2c-1.53,0-2.64.84-2.64,2s1.18,1.62,3,2c2.09.49,4.4.93,4.4,3.6,0,2.35-2.09,3.85-4.59,3.85a5.73,5.73,0,0,1-5.13-2.8Z"/><path d="M141,138.75a3.24,3.24,0,0,0,3.27-2.54l1.6.52a4.9,4.9,0,0,1-4.87,3.52c-3.26,0-5.67-2.65-5.67-6.5s2.41-6.5,5.67-6.5a4.89,4.89,0,0,1,4.87,3.51l-1.6.53a3.25,3.25,0,0,0-3.27-2.55c-2.33,0-4,2-4,5S138.68,138.75,141,138.75Z"/><path d="M152.29,127.25c3.3,0,5.71,2.65,5.71,6.5s-2.41,6.5-5.71,6.5-5.73-2.65-5.73-6.5S149,127.25,152.29,127.25Zm0,1.49c-2.37,0-4,2-4,5s1.67,5,4,5,4-2,4-5S154.66,128.74,152.29,128.74Z"/><path d="M162.78,140.05,158,127.44h1.81l3.9,10.51,3.9-10.51h1.72l-4.76,12.61Z"/><path d="M178.88,127.44v1.48h-6.57v3.88h5.57v1.48h-5.57v4.3h6.57v1.47h-8.24V127.44Z"/><path d="M182.43,140.05h-1.69V127.44h4.82c2.67,0,4.37,1.25,4.37,3.66a3.45,3.45,0,0,1-3.23,3.58l3.49,5.37h-1.93l-3.39-5.28h-2.44Zm3-6.74c1.79,0,2.79-.79,2.79-2.21s-1-2.2-2.79-2.2h-3v4.41Z"/><path d="M195.13,127.44h4c3.83,0,6.26,2.46,6.26,6.31s-2.43,6.3-6.26,6.3h-4Zm4,11.16c2.87,0,4.6-1.92,4.6-4.85s-1.73-4.85-4.61-4.85h-2.34v9.7Z"/><path d="M208.77,140.05h-1.68V127.44h1.68Z"/><path d="M211.2,136.4a4.27,4.27,0,0,0,3.84,2.39c1.64,0,2.9-.81,2.9-2.25s-1.45-1.79-3.37-2.25-3.95-1-3.95-3.39c0-2.21,1.91-3.65,4.3-3.65a4.9,4.9,0,0,1,4.53,2.48l-1.28,1a3.5,3.5,0,0,0-3.28-2c-1.53,0-2.64.84-2.64,2s1.18,1.62,2.95,2c2.09.49,4.39.93,4.39,3.6,0,2.35-2.09,3.85-4.58,3.85a5.73,5.73,0,0,1-5.13-2.8Z"/><path d="M226.09,138.75a3.25,3.25,0,0,0,3.27-2.54l1.6.52a4.9,4.9,0,0,1-4.87,3.52c-3.26,0-5.67-2.65-5.67-6.5s2.41-6.5,5.67-6.5a4.89,4.89,0,0,1,4.87,3.51l-1.6.53a3.26,3.26,0,0,0-3.27-2.55c-2.33,0-4,2-4,5S223.76,138.75,226.09,138.75Z"/><path d="M237.37,127.25c3.3,0,5.71,2.65,5.71,6.5s-2.41,6.5-5.71,6.5-5.73-2.65-5.73-6.5S234.07,127.25,237.37,127.25Zm0,1.49c-2.37,0-4,2-4,5s1.67,5,4,5,4-2,4-5S239.74,128.74,237.37,128.74Z"/><path d="M247.85,140.05l-4.79-12.61h1.81l3.9,10.51,3.9-10.51h1.72l-4.76,12.61Z"/><path d="M264,127.44v1.48h-6.57v3.88H263v1.48h-5.57v4.3H264v1.47h-8.24V127.44Z"/><path d="M267.51,140.05h-1.69V127.44h4.81c2.67,0,4.38,1.25,4.38,3.66a3.45,3.45,0,0,1-3.23,3.58l3.49,5.37h-1.93L270,134.77h-2.44Zm3-6.74c1.79,0,2.79-.79,2.79-2.21s-1-2.2-2.79-2.2h-3v4.41Z"/><path d="M280.21,127.44h4c3.83,0,6.25,2.46,6.25,6.31s-2.42,6.3-6.25,6.3h-4Zm4,11.16c2.86,0,4.6-1.92,4.6-4.85s-1.74-4.85-4.62-4.85h-2.33v9.7Z"/><path d="M293.85,140.05h-1.68V127.44h1.68Z"/><path d="M296.28,136.4a4.27,4.27,0,0,0,3.84,2.39c1.64,0,2.9-.81,2.9-2.25s-1.46-1.79-3.37-2.25-3.95-1-3.95-3.39c0-2.21,1.91-3.65,4.3-3.65a4.9,4.9,0,0,1,4.53,2.48l-1.28,1a3.5,3.5,0,0,0-3.29-2c-1.52,0-2.63.84-2.63,2s1.18,1.62,2.95,2c2.09.49,4.39.93,4.39,3.6,0,2.35-2.09,3.85-4.58,3.85a5.73,5.73,0,0,1-5.13-2.8Z"/><path d="M311.17,138.75a3.26,3.26,0,0,0,3.27-2.54l1.6.52a4.9,4.9,0,0,1-4.87,3.52c-3.27,0-5.67-2.65-5.67-6.5s2.4-6.5,5.67-6.5a4.89,4.89,0,0,1,4.87,3.51l-1.6.53a3.26,3.26,0,0,0-3.27-2.55c-2.34,0-4,2-4,5S308.83,138.75,311.17,138.75Z"/><path d="M322.45,127.25c3.3,0,5.71,2.65,5.71,6.5s-2.41,6.5-5.71,6.5-5.73-2.65-5.73-6.5S319.14,127.25,322.45,127.25Zm0,1.49c-2.37,0-4,2-4,5s1.67,5,4,5,4-2,4-5S324.82,128.74,322.45,128.74Z"/><path d="M332.93,140.05l-4.79-12.61H330l3.9,10.51,3.89-10.51h1.73l-4.76,12.61Z"/><path d="M349,127.44v1.48h-6.57v3.88H348v1.48h-5.57v4.3H349v1.47H340.8V127.44Z"/><path d="M352.59,140.05H350.9V127.44h4.81c2.67,0,4.38,1.25,4.38,3.66a3.45,3.45,0,0,1-3.24,3.58l3.5,5.37h-1.93L355,134.77h-2.44Zm3-6.74c1.8,0,2.8-.79,2.8-2.21s-1-2.2-2.8-2.2h-3v4.41Z"/><path d="M365.28,127.44h4c3.83,0,6.25,2.46,6.25,6.31s-2.42,6.3-6.25,6.3h-4Zm4,11.16c2.86,0,4.6-1.92,4.6-4.85s-1.74-4.85-4.62-4.85h-2.34v9.7Z"/><path d="M378.93,140.05h-1.69V127.44h1.69Z"/><path d="M381.35,136.4a4.29,4.29,0,0,0,3.85,2.39c1.63,0,2.9-.81,2.9-2.25s-1.46-1.79-3.37-2.25-4-1-4-3.39c0-2.21,1.92-3.65,4.31-3.65a4.92,4.92,0,0,1,4.53,2.48l-1.28,1a3.5,3.5,0,0,0-3.29-2c-1.53,0-2.63.84-2.63,2s1.17,1.62,2.95,2c2.09.49,4.39.93,4.39,3.6,0,2.35-2.09,3.85-4.58,3.85a5.73,5.73,0,0,1-5.13-2.8Z"/><path d="M396.25,138.75a3.26,3.26,0,0,0,3.27-2.54l1.59.52a4.89,4.89,0,0,1-4.86,3.52c-3.27,0-5.68-2.65-5.68-6.5s2.41-6.5,5.68-6.5a4.88,4.88,0,0,1,4.86,3.51l-1.59.53a3.26,3.26,0,0,0-3.27-2.55c-2.34,0-4,2-4,5S393.91,138.75,396.25,138.75Z"/><path d="M407.52,127.25c3.31,0,5.71,2.65,5.71,6.5s-2.4,6.5-5.71,6.5-5.72-2.65-5.72-6.5S404.22,127.25,407.52,127.25Zm0,1.49c-2.37,0-4,2-4,5s1.67,5,4,5,4-2,4-5S409.9,128.74,407.52,128.74Z"/><path d="M418,140.05l-4.8-12.61H415l3.9,10.51,3.9-10.51h1.72l-4.76,12.61Z"/><path d="M434.12,127.44v1.48h-6.57v3.88h5.56v1.48h-5.56v4.3h6.57v1.47h-8.24V127.44Z"/><path d="M437.66,140.05H436V127.44h4.81c2.67,0,4.37,1.25,4.37,3.66a3.45,3.45,0,0,1-3.23,3.58l3.5,5.37h-1.94l-3.39-5.28h-2.44Zm3-6.74c1.79,0,2.79-.79,2.79-2.21s-1-2.2-2.79-2.2h-3v4.41Z"/><path d="M3.9,120.8a3.26,3.26,0,0,0,3.27-2.55l1.6.53a4.89,4.89,0,0,1-4.87,3.51c-3.27,0-5.67-2.65-5.67-6.5s2.4-6.5,5.67-6.5a4.9,4.9,0,0,1,4.87,3.52l-1.6.52a3.26,3.26,0,0,0-3.27-2.54c-2.34,0-4,2-4,5S1.56,120.8,3.9,120.8Z"/><path d="M15.18,109.29c3.3,0,5.7,2.65,5.7,6.5s-2.4,6.5-5.7,6.5-5.73-2.65-5.73-6.5S11.87,109.29,15.18,109.29Zm0,1.5c-2.38,0-4,2-4,5s1.66,5,4,5,4-2,4-5S17.55,110.79,15.18,110.79Z"/><path d="M25.66,122.1l-4.79-12.61h1.81l3.9,10.5,3.89-10.5H32.2L27.44,122.1Z"/><path d="M41.77,109.49V111H35.2v3.88h5.57v1.48H35.2v4.3h6.57v1.48H33.53V109.49Z"/><path d="M45.31,122.1H43.63V109.49h4.81c2.67,0,4.37,1.24,4.37,3.65a3.44,3.44,0,0,1-3.23,3.58l3.5,5.38H51.15l-3.39-5.29H45.31Zm3-6.75c1.79,0,2.8-.79,2.8-2.21s-1-2.2-2.8-2.2h-3v4.41Z"/><path d="M58,109.49h4c3.83,0,6.25,2.45,6.25,6.3S65.85,122.1,62,122.1H58Zm4,11.15c2.86,0,4.6-1.91,4.6-4.85s-1.74-4.85-4.62-4.85H59.66v9.7Z"/><path d="M71.66,122.1H70V109.49h1.69Z"/><path d="M74.08,118.44a4.29,4.29,0,0,0,3.85,2.39c1.63,0,2.9-.8,2.9-2.25s-1.46-1.79-3.37-2.24-4-1-4-3.39,1.92-3.66,4.31-3.66a4.94,4.94,0,0,1,4.53,2.48l-1.28,1a3.51,3.51,0,0,0-3.29-2c-1.53,0-2.63.84-2.63,2.06s1.17,1.61,3,2c2.09.49,4.39.93,4.39,3.6,0,2.36-2.09,3.85-4.59,3.85a5.74,5.74,0,0,1-5.12-2.79Z"/><path d="M89,120.8a3.26,3.26,0,0,0,3.27-2.55l1.59.53A4.88,4.88,0,0,1,89,122.29c-3.27,0-5.68-2.65-5.68-6.5s2.41-6.5,5.68-6.5a4.89,4.89,0,0,1,4.86,3.52l-1.59.52A3.26,3.26,0,0,0,89,110.79c-2.34,0-4,2-4,5S86.64,120.8,89,120.8Z"/><path d="M100.25,109.29c3.31,0,5.71,2.65,5.71,6.5s-2.4,6.5-5.71,6.5-5.72-2.65-5.72-6.5S97,109.29,100.25,109.29Zm0,1.5c-2.37,0-4,2-4,5s1.67,5,4,5,4-2,4-5S102.62,110.79,100.25,110.79Z"/><path d="M110.74,122.1l-4.8-12.61h1.81l3.9,10.5,3.9-10.5h1.72l-4.76,12.61Z"/><path d="M126.85,109.49V111h-6.57v3.88h5.56v1.48h-5.56v4.3h6.57v1.48h-8.24V109.49Z"/><path d="M130.39,122.1h-1.68V109.49h4.81c2.67,0,4.37,1.24,4.37,3.65a3.45,3.45,0,0,1-3.23,3.58l3.5,5.38h-1.94l-3.39-5.29h-2.44Zm3-6.75c1.79,0,2.79-.79,2.79-2.21s-1-2.2-2.79-2.2h-3v4.41Z"/><path d="M143.09,109.49h4c3.83,0,6.25,2.45,6.25,6.3s-2.42,6.31-6.25,6.31h-4Zm4,11.15c2.86,0,4.6-1.91,4.6-4.85s-1.74-4.85-4.62-4.85h-2.34v9.7Z"/><path d="M156.74,122.1h-1.69V109.49h1.69Z"/><path d="M159.16,118.44a4.28,4.28,0,0,0,3.85,2.39c1.63,0,2.9-.8,2.9-2.25s-1.46-1.79-3.38-2.24-3.95-1-3.95-3.39,1.92-3.66,4.31-3.66a4.94,4.94,0,0,1,4.53,2.48l-1.29,1a3.49,3.49,0,0,0-3.28-2c-1.53,0-2.64.84-2.64,2.06s1.18,1.61,3,2c2.09.49,4.39.93,4.39,3.6,0,2.36-2.09,3.85-4.59,3.85a5.74,5.74,0,0,1-5.13-2.79Z"/><path d="M174.06,120.8a3.25,3.25,0,0,0,3.26-2.55l1.6.53a4.89,4.89,0,0,1-4.86,3.51c-3.27,0-5.68-2.65-5.68-6.5s2.41-6.5,5.68-6.5a4.9,4.9,0,0,1,4.86,3.52l-1.6.52a3.24,3.24,0,0,0-3.26-2.54c-2.34,0-4,2-4,5S171.72,120.8,174.06,120.8Z"/><path d="M185.33,109.29c3.3,0,5.71,2.65,5.71,6.5s-2.41,6.5-5.71,6.5-5.72-2.65-5.72-6.5S182,109.29,185.33,109.29Zm0,1.5c-2.37,0-4,2-4,5s1.67,5,4,5,4-2,4-5S187.7,110.79,185.33,110.79Z"/><path d="M195.82,122.1,191,109.49h1.81l3.9,10.5,3.9-10.5h1.72l-4.76,12.61Z"/><path d="M211.92,109.49V111h-6.57v3.88h5.57v1.48h-5.57v4.3h6.57v1.48h-8.23V109.49Z"/><path d="M215.47,122.1h-1.69V109.49h4.82c2.67,0,4.37,1.24,4.37,3.65a3.45,3.45,0,0,1-3.23,3.58l3.49,5.38H221.3l-3.39-5.29h-2.44Zm3-6.75c1.79,0,2.79-.79,2.79-2.21s-1-2.2-2.79-2.2h-3v4.41Z"/><path d="M228.17,109.49h4c3.83,0,6.26,2.45,6.26,6.3s-2.43,6.31-6.26,6.31h-4Zm4,11.15c2.87,0,4.61-1.91,4.61-4.85s-1.74-4.85-4.62-4.85h-2.34v9.7Z"/><path d="M241.82,122.1h-1.69V109.49h1.69Z"/><path d="M244.24,118.44a4.28,4.28,0,0,0,3.85,2.39c1.63,0,2.89-.8,2.89-2.25s-1.45-1.79-3.37-2.24-4-1-4-3.39,1.91-3.66,4.3-3.66a4.91,4.91,0,0,1,4.53,2.48l-1.28,1a3.5,3.5,0,0,0-3.28-2c-1.53,0-2.64.84-2.64,2.06s1.18,1.61,3,2c2.09.49,4.4.93,4.4,3.6,0,2.36-2.1,3.85-4.59,3.85a5.74,5.74,0,0,1-5.13-2.79Z"/><path d="M259.13,120.8a3.26,3.26,0,0,0,3.27-2.55l1.6.53a4.89,4.89,0,0,1-4.87,3.51c-3.26,0-5.67-2.65-5.67-6.5s2.41-6.5,5.67-6.5a4.9,4.9,0,0,1,4.87,3.52l-1.6.52a3.25,3.25,0,0,0-3.27-2.54c-2.33,0-4,2-4,5S256.8,120.8,259.13,120.8Z"/><path d="M270.41,109.29c3.3,0,5.71,2.65,5.71,6.5s-2.41,6.5-5.71,6.5-5.73-2.65-5.73-6.5S267.11,109.29,270.41,109.29Zm0,1.5c-2.37,0-4,2-4,5s1.67,5,4,5,4-2,4-5S272.78,110.79,270.41,110.79Z"/><path d="M280.9,122.1l-4.8-12.61h1.81l3.9,10.5,3.9-10.5h1.72l-4.76,12.61Z"/><path d="M297,109.49V111h-6.57v3.88H296v1.48h-5.57v4.3H297v1.48h-8.24V109.49Z"/><path d="M300.55,122.1h-1.69V109.49h4.82c2.67,0,4.37,1.24,4.37,3.65a3.45,3.45,0,0,1-3.23,3.58l3.49,5.38h-1.93L303,116.81h-2.44Zm3-6.75c1.79,0,2.79-.79,2.79-2.21s-1-2.2-2.79-2.2h-3v4.41Z"/><path d="M313.25,109.49h4c3.83,0,6.25,2.45,6.25,6.3s-2.42,6.31-6.25,6.31h-4Zm4,11.15c2.87,0,4.6-1.91,4.6-4.85s-1.73-4.85-4.62-4.85H314.9v9.7Z"/><path d="M326.89,122.1h-1.68V109.49h1.68Z"/><path d="M329.32,118.44a4.27,4.27,0,0,0,3.84,2.39c1.64,0,2.9-.8,2.9-2.25s-1.46-1.79-3.37-2.24-3.95-1-3.95-3.39,1.91-3.66,4.3-3.66a4.91,4.91,0,0,1,4.53,2.48l-1.28,1a3.5,3.5,0,0,0-3.28-2c-1.53,0-2.64.84-2.64,2.06s1.18,1.61,2.95,2c2.09.49,4.39.93,4.39,3.6,0,2.36-2.09,3.85-4.58,3.85A5.74,5.74,0,0,1,328,119.5Z"/><path d="M344.21,120.8a3.26,3.26,0,0,0,3.27-2.55l1.6.53a4.89,4.89,0,0,1-4.87,3.51c-3.27,0-5.67-2.65-5.67-6.5s2.4-6.5,5.67-6.5a4.9,4.9,0,0,1,4.87,3.52l-1.6.52a3.25,3.25,0,0,0-3.27-2.54c-2.33,0-4,2-4,5S341.88,120.8,344.21,120.8Z"/><path d="M355.49,109.29c3.3,0,5.71,2.65,5.71,6.5s-2.41,6.5-5.71,6.5-5.73-2.65-5.73-6.5S352.18,109.29,355.49,109.29Zm0,1.5c-2.37,0-4,2-4,5s1.67,5,4,5,4-2,4-5S357.86,110.79,355.49,110.79Z"/><path d="M366,122.1l-4.79-12.61H363l3.9,10.5,3.9-10.5h1.72l-4.76,12.61Z"/><path d="M382.08,109.49V111h-6.57v3.88h5.57v1.48h-5.57v4.3h6.57v1.48h-8.24V109.49Z"/><path d="M385.63,122.1h-1.69V109.49h4.81c2.67,0,4.38,1.24,4.38,3.65a3.45,3.45,0,0,1-3.24,3.58l3.5,5.38h-1.93l-3.39-5.29h-2.44Zm3-6.75c1.8,0,2.8-.79,2.8-2.21s-1-2.2-2.8-2.2h-3v4.41Z"/><path d="M-6.32,104.14H-8V91.53h4.82c2.67,0,4.37,1.25,4.37,3.65A3.47,3.47,0,0,1-2,98.77l3.49,5.37H-.49l-3.39-5.29H-6.32Zm3-6.74c1.79,0,2.79-.79,2.79-2.22S-1.49,93-3.28,93h-3V97.4Z"/><path d="M6.38,91.53h4c3.83,0,6.26,2.46,6.26,6.31s-2.43,6.3-6.26,6.3h-4Zm4,11.15c2.87,0,4.61-1.91,4.61-4.84S13.25,93,10.37,93H8v9.69Z"/><path d="M20,104.14H18.34V91.53H20Z"/><path d="M22.45,100.49a4.28,4.28,0,0,0,3.85,2.39c1.63,0,2.89-.81,2.89-2.25s-1.45-1.79-3.37-2.25-3.95-1-3.95-3.39c0-2.21,1.91-3.65,4.3-3.65a4.91,4.91,0,0,1,4.53,2.47l-1.28,1a3.5,3.5,0,0,0-3.28-2c-1.53,0-2.64.85-2.64,2.06s1.18,1.62,2.95,2c2.09.49,4.4.93,4.4,3.6,0,2.35-2.09,3.84-4.59,3.84a5.72,5.72,0,0,1-5.13-2.79Z"/><path d="M37.34,102.84a3.26,3.26,0,0,0,3.27-2.55l1.6.53a4.89,4.89,0,0,1-4.87,3.51c-3.26,0-5.67-2.65-5.67-6.49s2.41-6.5,5.67-6.5a4.89,4.89,0,0,1,4.87,3.51l-1.6.53a3.26,3.26,0,0,0-3.27-2.55c-2.33,0-4,2-4,5S35,102.84,37.34,102.84Z"/><path d="M48.62,91.34c3.3,0,5.71,2.65,5.71,6.5s-2.41,6.49-5.71,6.49-5.73-2.65-5.73-6.49S45.32,91.34,48.62,91.34Zm0,1.49c-2.37,0-4,2-4,5s1.67,5,4,5,4-2,4-5S51,92.83,48.62,92.83Z"/><path d="M59.11,104.14l-4.8-12.61h1.81L60,102l3.9-10.5h1.72l-4.76,12.61Z"/><path d="M75.21,91.53V93H68.64v3.89h5.57v1.47H68.64v4.31h6.57v1.47H67V91.53Z"/><path d="M78.76,104.14H77.07V91.53h4.82c2.67,0,4.37,1.25,4.37,3.65A3.47,3.47,0,0,1,83,98.77l3.49,5.37H84.59L81.2,98.85H78.76Zm3-6.74c1.79,0,2.79-.79,2.79-2.22S83.59,93,81.8,93h-3V97.4Z"/><path d="M91.46,91.53h4c3.83,0,6.26,2.46,6.26,6.31s-2.43,6.3-6.26,6.3h-4Zm4,11.15c2.87,0,4.6-1.91,4.6-4.84S98.33,93,95.44,93H93.11v9.69Z"/><path d="M105.1,104.14h-1.68V91.53h1.68Z"/><path d="M107.53,100.49a4.27,4.27,0,0,0,3.84,2.39c1.64,0,2.9-.81,2.9-2.25s-1.46-1.79-3.37-2.25-4-1-4-3.39c0-2.21,1.91-3.65,4.3-3.65a4.91,4.91,0,0,1,4.53,2.47l-1.28,1a3.5,3.5,0,0,0-3.28-2c-1.53,0-2.64.85-2.64,2.06s1.18,1.62,3,2c2.09.49,4.39.93,4.39,3.6,0,2.35-2.09,3.84-4.58,3.84a5.72,5.72,0,0,1-5.13-2.79Z"/><path d="M122.42,102.84a3.26,3.26,0,0,0,3.27-2.55l1.6.53a4.89,4.89,0,0,1-4.87,3.51c-3.27,0-5.67-2.65-5.67-6.49s2.4-6.5,5.67-6.5a4.89,4.89,0,0,1,4.87,3.51l-1.6.53a3.26,3.26,0,0,0-3.27-2.55c-2.33,0-4,2-4,5S120.09,102.84,122.42,102.84Z"/><path d="M133.7,91.34c3.3,0,5.71,2.65,5.71,6.5s-2.41,6.49-5.71,6.49S128,101.68,128,97.84,130.4,91.34,133.7,91.34Zm0,1.49c-2.37,0-4,2-4,5s1.67,5,4,5,4-2,4-5S136.07,92.83,133.7,92.83Z"/><path d="M144.18,104.14l-4.79-12.61h1.81l3.9,10.5,3.9-10.5h1.72L146,104.14Z"/><path d="M160.29,91.53V93h-6.57v3.89h5.57v1.47h-5.57v4.31h6.57v1.47h-8.24V91.53Z"/><path d="M163.84,104.14h-1.69V91.53H167c2.67,0,4.38,1.25,4.38,3.65a3.47,3.47,0,0,1-3.23,3.59l3.49,5.37h-1.93l-3.39-5.29h-2.44Zm3-6.74c1.79,0,2.79-.79,2.79-2.22s-1-2.19-2.79-2.19h-3V97.4Z"/><path d="M176.53,91.53h4c3.83,0,6.25,2.46,6.25,6.31s-2.42,6.3-6.25,6.3h-4Zm4,11.15c2.86,0,4.6-1.91,4.6-4.84S183.4,93,180.52,93h-2.33v9.69Z"/><path d="M190.18,104.14H188.5V91.53h1.68Z"/><path d="M192.61,100.49a4.27,4.27,0,0,0,3.84,2.39c1.64,0,2.9-.81,2.9-2.25s-1.46-1.79-3.37-2.25S192,97.36,192,95c0-2.21,1.91-3.65,4.3-3.65a4.92,4.92,0,0,1,4.53,2.47l-1.28,1a3.51,3.51,0,0,0-3.29-2c-1.52,0-2.63.85-2.63,2.06s1.18,1.62,3,2c2.09.49,4.39.93,4.39,3.6,0,2.35-2.09,3.84-4.58,3.84a5.72,5.72,0,0,1-5.13-2.79Z"/><path d="M207.5,102.84a3.26,3.26,0,0,0,3.27-2.55l1.6.53a4.89,4.89,0,0,1-4.87,3.51c-3.27,0-5.67-2.65-5.67-6.49s2.4-6.5,5.67-6.5a4.89,4.89,0,0,1,4.87,3.51l-1.6.53a3.26,3.26,0,0,0-3.27-2.55c-2.34,0-4,2-4,5S205.16,102.84,207.5,102.84Z"/><path d="M218.78,91.34c3.3,0,5.7,2.65,5.7,6.5s-2.4,6.49-5.7,6.49-5.73-2.65-5.73-6.49S215.47,91.34,218.78,91.34Zm0,1.49c-2.38,0-4,2-4,5s1.66,5,4,5,4-2,4-5S221.15,92.83,218.78,92.83Z"/><path d="M229.26,104.14l-4.79-12.61h1.81l3.89,10.5,3.9-10.5h1.73L231,104.14Z"/><path d="M245.37,91.53V93H238.8v3.89h5.57v1.47H238.8v4.31h6.57v1.47h-8.24V91.53Z"/><path d="M248.91,104.14h-1.68V91.53H252c2.67,0,4.38,1.25,4.38,3.65a3.47,3.47,0,0,1-3.24,3.59l3.5,5.37h-1.93l-3.39-5.29h-2.45Zm3-6.74c1.8,0,2.8-.79,2.8-2.22S253.75,93,252,93h-3V97.4Z"/><path d="M261.61,91.53h4c3.83,0,6.25,2.46,6.25,6.31s-2.42,6.3-6.25,6.3h-4Zm4,11.15c2.86,0,4.6-1.91,4.6-4.84S268.48,93,265.6,93h-2.34v9.69Z"/><path d="M275.26,104.14h-1.69V91.53h1.69Z"/><path d="M277.68,100.49a4.29,4.29,0,0,0,3.85,2.39c1.63,0,2.9-.81,2.9-2.25s-1.46-1.79-3.37-2.25-4-1-4-3.39c0-2.21,1.92-3.65,4.31-3.65a4.93,4.93,0,0,1,4.53,2.47l-1.28,1a3.51,3.51,0,0,0-3.29-2c-1.53,0-2.63.85-2.63,2.06s1.17,1.62,2.95,2c2.09.49,4.39.93,4.39,3.6,0,2.35-2.09,3.84-4.59,3.84a5.72,5.72,0,0,1-5.12-2.79Z"/><path d="M292.58,102.84a3.26,3.26,0,0,0,3.27-2.55l1.59.53a4.88,4.88,0,0,1-4.86,3.51c-3.27,0-5.68-2.65-5.68-6.49s2.41-6.5,5.68-6.5a4.88,4.88,0,0,1,4.86,3.51l-1.59.53a3.26,3.26,0,0,0-3.27-2.55c-2.34,0-4,2-4,5S290.24,102.84,292.58,102.84Z"/><path d="M303.85,91.34c3.31,0,5.71,2.65,5.71,6.5s-2.4,6.49-5.71,6.49-5.72-2.65-5.72-6.49S300.55,91.34,303.85,91.34Zm0,1.49c-2.37,0-4,2-4,5s1.67,5,4,5,4-2,4-5S306.22,92.83,303.85,92.83Z"/><path d="M314.34,104.14l-4.8-12.61h1.81l3.9,10.5,3.9-10.5h1.72l-4.76,12.61Z"/><path d="M330.45,91.53V93h-6.57v3.89h5.56v1.47h-5.56v4.31h6.57v1.47h-8.24V91.53Z"/><path d="M334,104.14h-1.68V91.53h4.81c2.67,0,4.37,1.25,4.37,3.65a3.47,3.47,0,0,1-3.23,3.59l3.5,5.37h-1.94l-3.39-5.29H334Zm3-6.74c1.79,0,2.79-.79,2.79-2.22S338.82,93,337,93h-3V97.4Z"/><path d="M-3.5,73.38c3.3,0,5.71,2.65,5.71,6.5s-2.41,6.5-5.71,6.5-5.72-2.65-5.72-6.5S-6.8,73.38-3.5,73.38Zm0,1.49c-2.37,0-4,2-4,5s1.67,5,4,5,4-2,4-5S-1.13,74.87-3.5,74.87Z"/><path d="M7,86.19,2.19,73.57H4L7.9,84.08l3.9-10.51h1.72L8.76,86.19Z"/><path d="M23.09,73.57v1.48H16.52v3.88h5.57v1.48H16.52v4.3h6.57v1.48H14.86V73.57Z"/><path d="M26.64,86.19H25V73.57h4.81c2.67,0,4.37,1.25,4.37,3.66a3.45,3.45,0,0,1-3.23,3.58l3.5,5.38H32.47L29.08,80.9H26.64Zm3-6.75c1.79,0,2.79-.79,2.79-2.21s-1-2.2-2.79-2.2h-3v4.41Z"/><path d="M39.34,73.57h4c3.83,0,6.26,2.46,6.26,6.31s-2.43,6.31-6.26,6.31h-4Zm4,11.16c2.87,0,4.61-1.92,4.61-4.85S46.21,75,43.33,75H41v9.7Z"/><path d="M53,86.19H51.3V73.57H53Z"/><path d="M55.41,82.53a4.28,4.28,0,0,0,3.85,2.39c1.63,0,2.9-.81,2.9-2.25s-1.46-1.79-3.38-2.25-4-1-4-3.39c0-2.21,1.92-3.65,4.3-3.65a4.92,4.92,0,0,1,4.54,2.48l-1.29,1a3.49,3.49,0,0,0-3.28-2c-1.53,0-2.64.84-2.64,2s1.18,1.62,2.95,2c2.1.49,4.4.93,4.4,3.6,0,2.36-2.09,3.85-4.59,3.85a5.74,5.74,0,0,1-5.13-2.79Z"/><path d="M70.3,84.89a3.25,3.25,0,0,0,3.27-2.55l1.6.53a4.9,4.9,0,0,1-4.87,3.51c-3.26,0-5.67-2.65-5.67-6.5s2.41-6.5,5.67-6.5a4.9,4.9,0,0,1,4.87,3.51l-1.6.53a3.25,3.25,0,0,0-3.27-2.55c-2.33,0-4,2-4,5S68,84.89,70.3,84.89Z"/><path d="M81.58,73.38c3.3,0,5.71,2.65,5.71,6.5s-2.41,6.5-5.71,6.5-5.73-2.65-5.73-6.5S78.28,73.38,81.58,73.38Zm0,1.49c-2.37,0-4,2-4,5s1.67,5,4,5,4-2,4-5S84,74.87,81.58,74.87Z"/><path d="M92.07,86.19l-4.8-12.62h1.81L93,84.08l3.9-10.51H98.6L93.84,86.19Z"/><path d="M108.17,73.57v1.48H101.6v3.88h5.57v1.48H101.6v4.3h6.57v1.48H99.93V73.57Z"/><path d="M111.72,86.19H110V73.57h4.82c2.67,0,4.37,1.25,4.37,3.66A3.45,3.45,0,0,1,116,80.81l3.49,5.38h-1.93l-3.39-5.29h-2.44Zm3-6.75c1.79,0,2.79-.79,2.79-2.21s-1-2.2-2.79-2.2h-3v4.41Z"/><path d="M124.42,73.57h4c3.83,0,6.26,2.46,6.26,6.31s-2.43,6.31-6.26,6.31h-4Zm4,11.16c2.87,0,4.6-1.92,4.6-4.85S131.29,75,128.4,75h-2.33v9.7Z"/><path d="M138.06,86.19h-1.68V73.57h1.68Z"/><path d="M140.49,82.53a4.27,4.27,0,0,0,3.84,2.39c1.64,0,2.9-.81,2.9-2.25s-1.45-1.79-3.37-2.25-4-1-4-3.39c0-2.21,1.91-3.65,4.3-3.65a4.9,4.9,0,0,1,4.53,2.48l-1.28,1a3.49,3.49,0,0,0-3.28-2c-1.53,0-2.64.84-2.64,2s1.18,1.62,3,2c2.09.49,4.39.93,4.39,3.6,0,2.36-2.09,3.85-4.58,3.85a5.74,5.74,0,0,1-5.13-2.79Z"/><path d="M155.38,84.89a3.26,3.26,0,0,0,3.27-2.55l1.6.53a4.9,4.9,0,0,1-4.87,3.51c-3.26,0-5.67-2.65-5.67-6.5s2.41-6.5,5.67-6.5a4.9,4.9,0,0,1,4.87,3.51l-1.6.53a3.26,3.26,0,0,0-3.27-2.55c-2.33,0-4,2-4,5S153.05,84.89,155.38,84.89Z"/><path d="M166.66,73.38c3.3,0,5.71,2.65,5.71,6.5s-2.41,6.5-5.71,6.5-5.73-2.65-5.73-6.5S163.36,73.38,166.66,73.38Zm0,1.49c-2.37,0-4,2-4,5s1.67,5,4,5,4-2,4-5S169,74.87,166.66,74.87Z"/><path d="M177.14,86.19l-4.79-12.62h1.81l3.9,10.51L182,73.57h1.72l-4.76,12.62Z"/><path d="M193.25,73.57v1.48h-6.57v3.88h5.57v1.48h-5.57v4.3h6.57v1.48H185V73.57Z"/><path d="M196.8,86.19h-1.69V73.57h4.81c2.67,0,4.38,1.25,4.38,3.66a3.45,3.45,0,0,1-3.23,3.58l3.49,5.38h-1.93l-3.39-5.29H196.8Zm3-6.75c1.79,0,2.79-.79,2.79-2.21s-1-2.2-2.79-2.2h-3v4.41Z"/><path d="M209.5,73.57h4c3.83,0,6.25,2.46,6.25,6.31s-2.42,6.31-6.25,6.31h-4Zm4,11.16c2.86,0,4.6-1.92,4.6-4.85S216.36,75,213.48,75h-2.33v9.7Z"/><path d="M223.14,86.19h-1.68V73.57h1.68Z"/><path d="M225.57,82.53a4.27,4.27,0,0,0,3.84,2.39c1.64,0,2.9-.81,2.9-2.25s-1.46-1.79-3.37-2.25S225,79.41,225,77c0-2.21,1.91-3.65,4.3-3.65a4.9,4.9,0,0,1,4.53,2.48l-1.28,1a3.49,3.49,0,0,0-3.29-2c-1.52,0-2.63.84-2.63,2s1.18,1.62,2.95,2c2.09.49,4.39.93,4.39,3.6,0,2.36-2.09,3.85-4.58,3.85a5.74,5.74,0,0,1-5.13-2.79Z"/><path d="M240.46,84.89a3.26,3.26,0,0,0,3.27-2.55l1.6.53a4.9,4.9,0,0,1-4.87,3.51c-3.27,0-5.67-2.65-5.67-6.5s2.4-6.5,5.67-6.5a4.9,4.9,0,0,1,4.87,3.51l-1.6.53a3.26,3.26,0,0,0-3.27-2.55c-2.34,0-4,2-4,5S238.12,84.89,240.46,84.89Z"/><path d="M251.74,73.38c3.3,0,5.7,2.65,5.7,6.5s-2.4,6.5-5.7,6.5S246,83.73,246,79.88,248.43,73.38,251.74,73.38Zm0,1.49c-2.38,0-4,2-4,5s1.66,5,4,5,4-2,4-5S254.11,74.87,251.74,74.87Z"/><path d="M262.22,86.19l-4.79-12.62h1.81l3.89,10.51L267,73.57h1.73L264,86.19Z"/><path d="M278.33,73.57v1.48h-6.57v3.88h5.57v1.48h-5.57v4.3h6.57v1.48h-8.24V73.57Z"/><path d="M281.87,86.19h-1.68V73.57H285c2.67,0,4.38,1.25,4.38,3.66a3.45,3.45,0,0,1-3.24,3.58l3.5,5.38h-1.93l-3.39-5.29h-2.45Zm3-6.75c1.8,0,2.8-.79,2.8-2.21s-1-2.2-2.8-2.2h-3v4.41Z"/><path d="M1.35,68.23H-.33V55.62H1.35Z"/><path d="M3.78,64.58A4.26,4.26,0,0,0,7.62,67c1.64,0,2.9-.8,2.9-2.24s-1.46-1.8-3.37-2.25-3.95-1-3.95-3.39c0-2.22,1.91-3.66,4.3-3.66A4.91,4.91,0,0,1,12,57.9l-1.28,1a3.51,3.51,0,0,0-3.29-2c-1.52,0-2.63.85-2.63,2.06s1.18,1.61,3,2c2.09.5,4.39.94,4.39,3.61,0,2.35-2.09,3.84-4.58,3.84a5.74,5.74,0,0,1-5.13-2.79Z"/><path d="M18.67,66.93a3.26,3.26,0,0,0,3.27-2.55l1.6.53a4.89,4.89,0,0,1-4.87,3.51c-3.27,0-5.67-2.65-5.67-6.5s2.4-6.5,5.67-6.5a4.9,4.9,0,0,1,4.87,3.52l-1.6.52a3.27,3.27,0,0,0-3.27-2.54c-2.34,0-4,2-4,5S16.33,66.93,18.67,66.93Z"/><path d="M30,55.42c3.3,0,5.71,2.66,5.71,6.5s-2.41,6.5-5.71,6.5-5.73-2.65-5.73-6.5S26.64,55.42,30,55.42Zm0,1.5c-2.37,0-4,2-4,5s1.67,5,4,5,4-2,4-5S32.32,56.92,30,56.92Z"/><path d="M40.43,68.23,35.64,55.62h1.81l3.9,10.5,3.89-10.5H47L42.21,68.23Z"/><path d="M56.54,55.62v1.47H50V61h5.57v1.48H50v4.3h6.57v1.48H48.3V55.62Z"/><path d="M60.09,68.23H58.4V55.62h4.81c2.67,0,4.38,1.24,4.38,3.65a3.45,3.45,0,0,1-3.24,3.58l3.5,5.38H65.92l-3.39-5.29H60.09Zm3-6.75c1.8,0,2.8-.79,2.8-2.21s-1-2.19-2.8-2.19h-3v4.4Z"/><path d="M72.78,55.62h4c3.83,0,6.25,2.46,6.25,6.3s-2.42,6.31-6.25,6.31h-4Zm4,11.15c2.86,0,4.6-1.91,4.6-4.85s-1.74-4.84-4.62-4.84H74.43v9.69Z"/><path d="M86.43,68.23H84.74V55.62h1.69Z"/><path d="M88.85,64.58A4.28,4.28,0,0,0,92.7,67c1.63,0,2.9-.8,2.9-2.24s-1.46-1.8-3.37-2.25-4-1-4-3.39c0-2.22,1.92-3.66,4.31-3.66a4.94,4.94,0,0,1,4.53,2.48l-1.28,1a3.51,3.51,0,0,0-3.29-2c-1.53,0-2.63.85-2.63,2.06s1.17,1.61,3,2c2.09.5,4.39.94,4.39,3.61,0,2.35-2.09,3.84-4.58,3.84a5.74,5.74,0,0,1-5.13-2.79Z"/><path d="M103.75,66.93A3.26,3.26,0,0,0,107,64.38l1.59.53a4.87,4.87,0,0,1-4.86,3.51c-3.27,0-5.68-2.65-5.68-6.5s2.41-6.5,5.68-6.5a4.88,4.88,0,0,1,4.86,3.52l-1.59.52a3.27,3.27,0,0,0-3.27-2.54c-2.34,0-4,2-4,5S101.41,66.93,103.75,66.93Z"/><path d="M115,55.42c3.31,0,5.71,2.66,5.71,6.5s-2.4,6.5-5.71,6.5-5.72-2.65-5.72-6.5S111.72,55.42,115,55.42Zm0,1.5c-2.37,0-4,2-4,5s1.67,5,4,5,4-2,4-5S117.4,56.92,115,56.92Z"/><path d="M125.51,68.23l-4.8-12.61h1.81l3.9,10.5,3.9-10.5H132l-4.76,12.61Z"/><path d="M141.62,55.62v1.47h-6.57V61h5.57v1.48h-5.57v4.3h6.57v1.48h-8.24V55.62Z"/><path d="M145.16,68.23h-1.68V55.62h4.81c2.67,0,4.37,1.24,4.37,3.65a3.45,3.45,0,0,1-3.23,3.58l3.5,5.38H151l-3.39-5.29h-2.45Zm3-6.75c1.79,0,2.8-.79,2.8-2.21s-1-2.19-2.8-2.19h-3v4.4Z"/><path d="M157.86,55.62h4c3.83,0,6.25,2.46,6.25,6.3s-2.42,6.31-6.25,6.31h-4Zm4,11.15c2.86,0,4.6-1.91,4.6-4.85s-1.74-4.84-4.62-4.84h-2.34v9.69Z"/><path d="M171.51,68.23h-1.69V55.62h1.69Z"/><path d="M173.93,64.58A4.28,4.28,0,0,0,177.78,67c1.63,0,2.9-.8,2.9-2.24s-1.46-1.8-3.38-2.25-4-1-4-3.39c0-2.22,1.92-3.66,4.31-3.66a4.94,4.94,0,0,1,4.53,2.48l-1.28,1a3.52,3.52,0,0,0-3.29-2c-1.53,0-2.63.85-2.63,2.06s1.17,1.61,2.95,2c2.09.5,4.39.94,4.39,3.61,0,2.35-2.09,3.84-4.59,3.84a5.76,5.76,0,0,1-5.13-2.79Z"/><path d="M188.83,66.93a3.25,3.25,0,0,0,3.26-2.55l1.6.53a4.89,4.89,0,0,1-4.86,3.51c-3.27,0-5.68-2.65-5.68-6.5s2.41-6.5,5.68-6.5a4.9,4.9,0,0,1,4.86,3.52l-1.6.52a3.25,3.25,0,0,0-3.26-2.54c-2.34,0-4,2-4,5S186.49,66.93,188.83,66.93Z"/><path d="M200.1,55.42c3.3,0,5.71,2.66,5.71,6.5s-2.41,6.5-5.71,6.5-5.72-2.65-5.72-6.5S196.8,55.42,200.1,55.42Zm0,1.5c-2.37,0-4,2-4,5s1.67,5,4,5,4-2,4-5S202.47,56.92,200.1,56.92Z"/><path d="M210.59,68.23l-4.8-12.61h1.81l3.9,10.5,3.9-10.5h1.72l-4.76,12.61Z"/><path d="M226.69,55.62v1.47h-6.57V61h5.57v1.48h-5.57v4.3h6.57v1.48h-8.23V55.62Z"/><path d="M230.24,68.23h-1.69V55.62h4.82c2.67,0,4.37,1.24,4.37,3.65a3.45,3.45,0,0,1-3.23,3.58l3.5,5.38h-1.94l-3.39-5.29h-2.44Zm3-6.75c1.79,0,2.79-.79,2.79-2.21s-1-2.19-2.79-2.19h-3v4.4Z"/><path d="M4.58,37.66v1.48H-2V43H3.58v1.47H-2V48.8H4.58v1.47H-3.66V37.66Z"/><path d="M8.13,50.27H6.44V37.66h4.82c2.67,0,4.37,1.25,4.37,3.65A3.47,3.47,0,0,1,12.4,44.9l3.49,5.37H14L10.57,45H8.13Zm3-6.74c1.79,0,2.79-.79,2.79-2.22s-1-2.19-2.79-2.19h-3v4.41Z"/><path d="M20.83,37.66h4c3.83,0,6.25,2.46,6.25,6.31s-2.42,6.3-6.25,6.3h-4Zm4,11.16c2.87,0,4.6-1.92,4.6-4.85s-1.73-4.85-4.62-4.85H22.48v9.7Z"/><path d="M34.47,50.27H32.79V37.66h1.68Z"/><path d="M36.9,46.62A4.27,4.27,0,0,0,40.74,49c1.64,0,2.9-.81,2.9-2.25S42.18,45,40.27,44.51s-4-1-4-3.39c0-2.21,1.91-3.65,4.3-3.65a4.91,4.91,0,0,1,4.53,2.47l-1.28,1a3.5,3.5,0,0,0-3.28-2c-1.53,0-2.64.84-2.64,2s1.18,1.62,2.95,2c2.09.49,4.39.93,4.39,3.6,0,2.35-2.09,3.85-4.58,3.85a5.73,5.73,0,0,1-5.13-2.8Z"/><path d="M51.79,49a3.26,3.26,0,0,0,3.27-2.54l1.6.52a4.9,4.9,0,0,1-4.87,3.52c-3.26,0-5.67-2.66-5.67-6.5s2.41-6.5,5.67-6.5A4.89,4.89,0,0,1,56.66,41l-1.6.53A3.26,3.26,0,0,0,51.79,39c-2.33,0-4,2-4,5S49.46,49,51.79,49Z"/><path d="M63.07,37.47c3.3,0,5.71,2.65,5.71,6.5s-2.41,6.5-5.71,6.5-5.73-2.66-5.73-6.5S59.77,37.47,63.07,37.47Zm0,1.49c-2.37,0-4,2-4,5s1.67,5,4,5,4-2,4-5S65.44,39,63.07,39Z"/><path d="M73.55,50.27,68.76,37.66h1.81l3.9,10.51,3.9-10.51h1.72L75.33,50.27Z"/><path d="M89.66,37.66v1.48H83.09V43h5.57v1.47H83.09V48.8h6.57v1.47H81.42V37.66Z"/><path d="M93.21,50.27H91.52V37.66h4.81c2.67,0,4.38,1.25,4.38,3.65a3.47,3.47,0,0,1-3.23,3.59L101,50.27H99L95.65,45H93.21Zm3-6.74c1.79,0,2.79-.79,2.79-2.22s-1-2.19-2.79-2.19h-3v4.41Z"/><path d="M105.91,37.66h4c3.83,0,6.25,2.46,6.25,6.31s-2.42,6.3-6.25,6.3h-4Zm4,11.16c2.86,0,4.6-1.92,4.6-4.85s-1.74-4.85-4.62-4.85h-2.33v9.7Z"/><path d="M119.55,50.27h-1.68V37.66h1.68Z"/><path d="M122,46.62A4.27,4.27,0,0,0,125.82,49c1.64,0,2.9-.81,2.9-2.25s-1.46-1.79-3.37-2.25-3.95-1-3.95-3.39c0-2.21,1.91-3.65,4.3-3.65a4.92,4.92,0,0,1,4.53,2.47L129,41a3.5,3.5,0,0,0-3.29-2c-1.52,0-2.63.84-2.63,2s1.18,1.62,3,2c2.09.49,4.39.93,4.39,3.6,0,2.35-2.09,3.85-4.58,3.85a5.73,5.73,0,0,1-5.13-2.8Z"/><path d="M136.87,49a3.27,3.27,0,0,0,3.27-2.54l1.6.52a4.9,4.9,0,0,1-4.87,3.52c-3.27,0-5.67-2.66-5.67-6.5s2.4-6.5,5.67-6.5A4.89,4.89,0,0,1,141.74,41l-1.6.53A3.26,3.26,0,0,0,136.87,39c-2.34,0-4,2-4,5S134.53,49,136.87,49Z"/><path d="M148.15,37.47c3.3,0,5.7,2.65,5.7,6.5s-2.4,6.5-5.7,6.5-5.73-2.66-5.73-6.5S144.84,37.47,148.15,37.47Zm0,1.49c-2.38,0-4,2-4,5s1.66,5,4,5,4-2,4-5S150.52,39,148.15,39Z"/><path d="M158.63,50.27l-4.79-12.61h1.81l3.89,10.51,3.9-10.51h1.73l-4.76,12.61Z"/><path d="M174.74,37.66v1.48h-6.57V43h5.57v1.47h-5.57V48.8h6.57v1.47H166.5V37.66Z"/><path d="M178.28,50.27H176.6V37.66h4.81c2.67,0,4.37,1.25,4.37,3.65a3.46,3.46,0,0,1-3.23,3.59l3.5,5.37h-1.93L180.73,45h-2.45Zm3-6.74c1.79,0,2.8-.79,2.8-2.22s-1-2.19-2.8-2.19h-3v4.41Z"/><path d="M-.16,31A3.25,3.25,0,0,0,3.1,28.47L4.7,29A4.89,4.89,0,0,1-.16,32.51c-3.27,0-5.68-2.65-5.68-6.5s2.41-6.5,5.68-6.5A4.9,4.9,0,0,1,4.7,23l-1.6.53A3.25,3.25,0,0,0-.16,21c-2.34,0-4,2-4,5S-2.5,31-.16,31Z"/><path d="M11.11,19.51c3.3,0,5.71,2.65,5.71,6.5s-2.41,6.5-5.71,6.5S5.39,29.86,5.39,26,7.81,19.51,11.11,19.51Zm0,1.49c-2.37,0-4,2-4,5s1.67,5,4,5,4-2,4-5S13.48,21,11.11,21Z"/><path d="M21.6,32.32,16.8,19.7h1.81l3.9,10.51,3.9-10.51h1.72L23.37,32.32Z"/><path d="M37.7,19.7v1.48H31.13v3.88H36.7v1.48H31.13v4.3H37.7v1.48H29.47V19.7Z"/><path d="M41.25,32.32H39.56V19.7h4.82c2.67,0,4.37,1.25,4.37,3.66a3.45,3.45,0,0,1-3.23,3.58L49,32.32H47.08L43.69,27H41.25Zm3-6.75c1.79,0,2.79-.79,2.79-2.21s-1-2.2-2.79-2.2h-3v4.41Z"/><path d="M54,19.7h4c3.83,0,6.26,2.46,6.26,6.31S61.78,32.32,58,32.32H54Zm4,11.16c2.87,0,4.61-1.92,4.61-4.85s-1.74-4.85-4.62-4.85H55.6v9.7Z"/><path d="M67.6,32.32H65.91V19.7H67.6Z"/><path d="M70,28.66a4.28,4.28,0,0,0,3.85,2.39c1.63,0,2.9-.81,2.9-2.25S75.31,27,73.39,26.56s-4-1-4-3.39,1.91-3.66,4.3-3.66A4.94,4.94,0,0,1,78.28,22L77,23a3.49,3.49,0,0,0-3.28-2c-1.53,0-2.64.84-2.64,2.05s1.18,1.62,3,2c2.09.49,4.4.93,4.4,3.6,0,2.36-2.09,3.85-4.59,3.85a5.74,5.74,0,0,1-5.13-2.79Z"/><path d="M84.91,31a3.26,3.26,0,0,0,3.27-2.55l1.6.53a4.89,4.89,0,0,1-4.87,3.51c-3.26,0-5.67-2.65-5.67-6.5s2.41-6.5,5.67-6.5A4.9,4.9,0,0,1,89.78,23l-1.6.53A3.26,3.26,0,0,0,84.91,21c-2.33,0-4,2-4,5S82.58,31,84.91,31Z"/><path d="M96.19,19.51c3.3,0,5.71,2.65,5.71,6.5s-2.41,6.5-5.71,6.5-5.73-2.65-5.73-6.5S92.89,19.51,96.19,19.51Zm0,1.49c-2.37,0-4,2-4,5s1.67,5,4,5,4-2,4-5S98.56,21,96.19,21Z"/><path d="M106.68,32.32l-4.8-12.62h1.81l3.9,10.51,3.9-10.51h1.72l-4.76,12.62Z"/><path d="M122.78,19.7v1.48h-6.57v3.88h5.57v1.48h-5.57v4.3h6.57v1.48h-8.24V19.7Z"/><path d="M126.33,32.32h-1.69V19.7h4.82c2.67,0,4.37,1.25,4.37,3.66a3.45,3.45,0,0,1-3.23,3.58l3.49,5.38h-1.93L128.77,27h-2.44Zm3-6.75c1.79,0,2.79-.79,2.79-2.21s-1-2.2-2.79-2.2h-3v4.41Z"/><path d="M2.32,1.75h4c3.83,0,6.25,2.46,6.25,6.3s-2.42,6.31-6.25,6.31h-4Zm4,11.15c2.86,0,4.6-1.91,4.6-4.85S9.18,3.21,6.3,3.21H4V12.9Z"/><path d="M16,14.36H14.28V1.75H16Z"/><path d="M18.39,10.71a4.27,4.27,0,0,0,3.84,2.39c1.64,0,2.9-.81,2.9-2.25S23.67,9.06,21.76,8.6s-4-1-4-3.39c0-2.21,1.91-3.65,4.3-3.65A4.91,4.91,0,0,1,26.64,4l-1.28,1a3.51,3.51,0,0,0-3.29-2c-1.52,0-2.63.85-2.63,2.06s1.18,1.61,2.95,2c2.09.49,4.39.93,4.39,3.6,0,2.35-2.09,3.84-4.58,3.84a5.72,5.72,0,0,1-5.13-2.79Z"/><path d="M33.28,13.06a3.26,3.26,0,0,0,3.27-2.55l1.6.53a4.89,4.89,0,0,1-4.87,3.51c-3.27,0-5.67-2.65-5.67-6.5S30,1.56,33.28,1.56a4.89,4.89,0,0,1,4.87,3.51l-1.6.53a3.26,3.26,0,0,0-3.27-2.55c-2.34,0-4,2-4,5S30.94,13.06,33.28,13.06Z"/><path d="M44.56,1.56c3.3,0,5.7,2.65,5.7,6.49s-2.4,6.5-5.7,6.5-5.73-2.65-5.73-6.5S41.25,1.56,44.56,1.56Zm0,1.49c-2.38,0-4,2-4,5s1.66,5,4,5,4-2,4-5S46.93,3.05,44.56,3.05Z"/><path d="M55,14.36,50.25,1.75h1.81L56,12.25l3.9-10.5h1.73L56.82,14.36Z"/><path d="M71.15,1.75V3.22H64.58V7.11h5.57V8.58H64.58v4.31h6.57v1.47H62.91V1.75Z"/><path d="M74.69,14.36H73V1.75h4.81C80.49,1.75,82.2,3,82.2,5.4A3.47,3.47,0,0,1,79,9l3.5,5.37H80.53L77.14,9.07H74.69Zm3-6.74c1.8,0,2.8-.79,2.8-2.22s-1-2.19-2.8-2.19h-3V7.62Z"/><path d="M924.3,163.53V165h-6.57v3.88h5.57v1.48h-5.57v4.3h6.57v1.48h-8.24V163.53Z"/><path d="M931.5,169.73l4.46,6.41h-1.9L930.5,171l-3.58,5.17h-1.87l4.48-6.4-4.34-6.21h1.9l3.44,4.95,3.43-4.95h1.86Z"/><path d="M939,176.14H937.3V163.53h4.81c2.67,0,4.37,1.24,4.37,3.65s-1.7,3.67-4.37,3.67H939Zm3-6.75c1.79,0,2.79-.79,2.79-2.21s-1-2.2-2.79-2.2h-3v4.41Z"/><path d="M947.87,163.53h1.68v11.13h6.29v1.48h-8Z"/><path d="M961.64,163.33c3.3,0,5.71,2.66,5.71,6.5s-2.41,6.5-5.71,6.5-5.73-2.65-5.73-6.5S958.34,163.33,961.64,163.33Zm0,1.5c-2.37,0-4,2-4,5s1.67,5,4,5,4-2,4-5S964,164.83,961.64,164.83Z"/><path d="M970.74,176.14h-1.69V163.53h4.81c2.67,0,4.38,1.24,4.38,3.65a3.45,3.45,0,0,1-3.23,3.58l3.49,5.38h-1.93l-3.39-5.29h-2.44Zm3-6.75c1.79,0,2.79-.79,2.79-2.21s-1-2.2-2.79-2.2h-3v4.41Z"/><path d="M988.32,163.53V165h-6.57v3.88h5.57v1.48h-5.57v4.3h6.57v1.48h-8.24V163.53Z"/><path d="M1001.77,163.53V165H995.2v3.88h5.57v1.48H995.2v4.3h6.57v1.48h-8.24V163.53Z"/><path d="M1009,169.73l4.46,6.41h-1.89L1008,171l-3.58,5.17h-1.86l4.48-6.4-4.34-6.21h1.89l3.45,4.95,3.42-4.95h1.86Z"/><path d="M1016.45,176.14h-1.68V163.53h4.81c2.67,0,4.37,1.24,4.37,3.65s-1.7,3.67-4.37,3.67h-3.13Zm3-6.75c1.79,0,2.8-.79,2.8-2.21s-1-2.2-2.8-2.2h-3v4.41Z"/><path d="M1025.34,163.53H1027v11.13h6.29v1.48h-8Z"/><path d="M1039.11,163.33c3.3,0,5.71,2.66,5.71,6.5s-2.41,6.5-5.71,6.5-5.72-2.65-5.72-6.5S1035.81,163.33,1039.11,163.33Zm0,1.5c-2.37,0-4,2-4,5s1.67,5,4,5,4-2,4-5S1041.48,164.83,1039.11,164.83Z"/><path d="M1048.21,176.14h-1.69V163.53h4.82c2.67,0,4.37,1.24,4.37,3.65a3.45,3.45,0,0,1-3.23,3.58l3.49,5.38H1054l-3.39-5.29h-2.44Zm3-6.75c1.79,0,2.79-.79,2.79-2.21s-1-2.2-2.79-2.2h-3v4.41Z"/><path d="M1065.79,163.53V165h-6.57v3.88h5.57v1.48h-5.57v4.3h6.57v1.48h-8.24V163.53Z"/><path d="M1079.24,163.53V165h-6.56v3.88h5.56v1.48h-5.56v4.3h6.56v1.48H1071V163.53Z"/><path d="M1086.44,169.73l4.47,6.41H1089l-3.57-5.17-3.58,5.17H1080l4.48-6.4-4.34-6.21h1.9l3.44,4.95,3.42-4.95h1.87Z"/><path d="M1093.93,176.14h-1.69V163.53h4.81c2.67,0,4.38,1.24,4.38,3.65s-1.71,3.67-4.38,3.67h-3.12Zm3-6.75c1.79,0,2.79-.79,2.79-2.21s-1-2.2-2.79-2.2h-3v4.41Z"/><path d="M1102.81,163.53h1.69v11.13h6.29v1.48h-8Z"/><path d="M1116.58,163.33c3.31,0,5.71,2.66,5.71,6.5s-2.4,6.5-5.71,6.5-5.72-2.65-5.72-6.5S1113.28,163.33,1116.58,163.33Zm0,1.5c-2.37,0-4,2-4,5s1.67,5,4,5,4-2,4-5S1119,164.83,1116.58,164.83Z"/><path d="M1125.68,176.14H1124V163.53h4.82c2.67,0,4.37,1.24,4.37,3.65a3.45,3.45,0,0,1-3.23,3.58l3.5,5.38h-1.94l-3.39-5.29h-2.44Zm3-6.75c1.79,0,2.79-.79,2.79-2.21s-1-2.2-2.79-2.2h-3v4.41Z"/><path d="M1143.26,163.53V165h-6.57v3.88h5.57v1.48h-5.57v4.3h6.57v1.48H1135V163.53Z"/><path d="M1156.72,163.53V165h-6.57v3.88h5.57v1.48h-5.57v4.3h6.57v1.48h-8.24V163.53Z"/><path d="M1163.92,169.73l4.46,6.41h-1.9l-3.56-5.17-3.59,5.17h-1.86l4.48-6.4-4.34-6.21h1.9l3.44,4.95,3.43-4.95h1.86Z"/><path d="M1171.4,176.14h-1.69V163.53h4.82c2.67,0,4.37,1.24,4.37,3.65s-1.7,3.67-4.37,3.67h-3.13Zm3-6.75c1.79,0,2.79-.79,2.79-2.21s-1-2.2-2.79-2.2h-3v4.41Z"/><path d="M1180.29,163.53H1182v11.13h6.29v1.48h-8Z"/><path d="M1194.06,163.33c3.3,0,5.71,2.66,5.71,6.5s-2.41,6.5-5.71,6.5-5.73-2.65-5.73-6.5S1190.75,163.33,1194.06,163.33Zm0,1.5c-2.38,0-4,2-4,5s1.66,5,4,5,4-2,4-5S1196.43,164.83,1194.06,164.83Z"/><path d="M1203.15,176.14h-1.68V163.53h4.81c2.67,0,4.37,1.24,4.37,3.65a3.45,3.45,0,0,1-3.23,3.58l3.5,5.38H1209l-3.39-5.29h-2.45Zm3-6.75c1.79,0,2.8-.79,2.8-2.21s-1-2.2-2.8-2.2h-3v4.41Z"/><path d="M1220.74,163.53V165h-6.57v3.88h5.56v1.48h-5.56v4.3h6.57v1.48h-8.24V163.53Z"/><path d="M1234.19,163.53V165h-6.57v3.88h5.57v1.48h-5.57v4.3h6.57v1.48H1226V163.53Z"/><path d="M1241.39,169.73l4.46,6.41H1244l-3.56-5.17-3.58,5.17h-1.87l4.48-6.4-4.34-6.21h1.9l3.44,4.95,3.43-4.95h1.86Z"/><path d="M1248.87,176.14h-1.69V163.53H1252c2.67,0,4.37,1.24,4.37,3.65s-1.7,3.67-4.37,3.67h-3.13Zm3-6.75c1.79,0,2.79-.79,2.79-2.21s-1-2.2-2.79-2.2h-3v4.41Z"/><path d="M1257.76,163.53h1.68v11.13h6.29v1.48h-8Z"/><path d="M1271.53,163.33c3.3,0,5.71,2.66,5.71,6.5s-2.41,6.5-5.71,6.5-5.73-2.65-5.73-6.5S1268.23,163.33,1271.53,163.33Zm0,1.5c-2.37,0-4,2-4,5s1.67,5,4,5,4-2,4-5S1273.9,164.83,1271.53,164.83Z"/><path d="M1280.63,176.14h-1.69V163.53h4.81c2.67,0,4.38,1.24,4.38,3.65a3.45,3.45,0,0,1-3.24,3.58l3.5,5.38h-1.93l-3.39-5.29h-2.44Zm3-6.75c1.8,0,2.8-.79,2.8-2.21s-1-2.2-2.8-2.2h-3v4.41Z"/><path d="M1298.21,163.53V165h-6.57v3.88h5.57v1.48h-5.57v4.3h6.57v1.48H1290V163.53Z"/><path d="M1311.66,163.53V165h-6.57v3.88h5.57v1.48h-5.57v4.3h6.57v1.48h-8.24V163.53Z"/><path d="M1318.86,169.73l4.46,6.41h-1.89l-3.57-5.17-3.58,5.17h-1.86l4.47-6.4-4.33-6.21h1.89l3.45,4.95,3.42-4.95h1.86Z"/><path d="M1326.34,176.14h-1.68V163.53h4.81c2.67,0,4.37,1.24,4.37,3.65s-1.7,3.67-4.37,3.67h-3.13Zm3-6.75c1.79,0,2.79-.79,2.79-2.21s-1-2.2-2.79-2.2h-3v4.41Z"/><path d="M1335.23,163.53h1.69v11.13h6.29v1.48h-8Z"/><path d="M1349,163.33c3.3,0,5.71,2.66,5.71,6.5s-2.41,6.5-5.71,6.5-5.73-2.65-5.73-6.5S1345.7,163.33,1349,163.33Zm0,1.5c-2.37,0-4,2-4,5s1.67,5,4,5,4-2,4-5S1351.37,164.83,1349,164.83Z"/><path d="M1358.1,176.14h-1.69V163.53h4.82c2.67,0,4.37,1.24,4.37,3.65a3.45,3.45,0,0,1-3.23,3.58l3.49,5.38h-1.93l-3.39-5.29h-2.44Zm3-6.75c1.79,0,2.79-.79,2.79-2.21s-1-2.2-2.79-2.2h-3v4.41Z"/><path d="M1375.68,163.53V165h-6.57v3.88h5.57v1.48h-5.57v4.3h6.57v1.48h-8.24V163.53Z"/><path d="M1389.13,163.53V165h-6.57v3.88h5.57v1.48h-5.57v4.3h6.57v1.48h-8.23V163.53Z"/><path d="M1396.33,169.73l4.47,6.41h-1.9l-3.57-5.17-3.58,5.17h-1.86l4.48-6.4-4.34-6.21h1.9l3.44,4.95,3.42-4.95h1.87Z"/><path d="M1403.82,176.14h-1.69V163.53h4.81c2.67,0,4.38,1.24,4.38,3.65s-1.71,3.67-4.38,3.67h-3.12Zm3-6.75c1.8,0,2.8-.79,2.8-2.21s-1-2.2-2.8-2.2h-3v4.41Z"/><path d="M1412.7,163.53h1.69v11.13h6.29v1.48h-8Z"/><path d="M1426.47,163.33c3.31,0,5.71,2.66,5.71,6.5s-2.4,6.5-5.71,6.5-5.72-2.65-5.72-6.5S1423.17,163.33,1426.47,163.33Zm0,1.5c-2.37,0-4,2-4,5s1.67,5,4,5,4-2,4-5S1428.84,164.83,1426.47,164.83Z"/><path d="M1435.57,176.14h-1.69V163.53h4.82c2.67,0,4.37,1.24,4.37,3.65a3.45,3.45,0,0,1-3.23,3.58l3.49,5.38h-1.93l-3.39-5.29h-2.44Zm3-6.75c1.79,0,2.79-.79,2.79-2.21s-1-2.2-2.79-2.2h-3v4.41Z"/><path d="M974.19,145.57v1.48h-6.57v3.88h5.57v1.47h-5.57v4.31h6.57v1.47H966V145.57Z"/><path d="M981.39,151.77l4.46,6.41H984L980.39,153l-3.58,5.16h-1.87l4.48-6.39-4.34-6.22H977l3.44,5,3.43-5h1.86Z"/><path d="M988.87,158.18h-1.68V145.57H992c2.67,0,4.37,1.25,4.37,3.65s-1.7,3.68-4.37,3.68h-3.13Zm3-6.74c1.79,0,2.79-.79,2.79-2.22s-1-2.19-2.79-2.19h-3v4.41Z"/><path d="M997.76,145.57h1.68v11.14h6.29v1.47h-8Z"/><path d="M1011.53,145.38c3.3,0,5.71,2.65,5.71,6.5s-2.41,6.5-5.71,6.5-5.73-2.66-5.73-6.5S1008.23,145.38,1011.53,145.38Zm0,1.49c-2.37,0-4,2-4,5s1.67,5,4,5,4-2,4-5S1013.9,146.87,1011.53,146.87Z"/><path d="M1020.63,158.18h-1.69V145.57h4.81c2.67,0,4.38,1.25,4.38,3.65a3.47,3.47,0,0,1-3.23,3.59l3.49,5.37h-1.93l-3.39-5.28h-2.44Zm3-6.74c1.79,0,2.79-.79,2.79-2.22s-1-2.19-2.79-2.19h-3v4.41Z"/><path d="M1038.21,145.57v1.48h-6.57v3.88h5.57v1.47h-5.57v4.31h6.57v1.47H1030V145.57Z"/><path d="M1051.66,145.57v1.48h-6.57v3.88h5.57v1.47h-5.57v4.31h6.57v1.47h-8.24V145.57Z"/><path d="M1058.86,151.77l4.46,6.41h-1.89l-3.57-5.16-3.58,5.16h-1.86l4.48-6.39-4.34-6.22h1.89l3.45,5,3.42-5h1.86Z"/><path d="M1066.34,158.18h-1.68V145.57h4.81c2.67,0,4.37,1.25,4.37,3.65s-1.7,3.68-4.37,3.68h-3.13Zm3-6.74c1.79,0,2.8-.79,2.8-2.22s-1-2.19-2.8-2.19h-3v4.41Z"/><path d="M1075.23,145.57h1.69v11.14h6.29v1.47h-8Z"/><path d="M1089,145.38c3.3,0,5.71,2.65,5.71,6.5s-2.41,6.5-5.71,6.5-5.72-2.66-5.72-6.5S1085.7,145.38,1089,145.38Zm0,1.49c-2.37,0-4,2-4,5s1.67,5,4,5,4-2,4-5S1091.37,146.87,1089,146.87Z"/><path d="M1098.1,158.18h-1.69V145.57h4.82c2.67,0,4.37,1.25,4.37,3.65a3.47,3.47,0,0,1-3.23,3.59l3.49,5.37h-1.93l-3.39-5.28h-2.44Zm3-6.74c1.79,0,2.79-.79,2.79-2.22s-1-2.19-2.79-2.19h-3v4.41Z"/><path d="M1115.68,145.57v1.48h-6.57v3.88h5.57v1.47h-5.57v4.31h6.57v1.47h-8.24V145.57Z"/><path d="M1129.13,145.57v1.48h-6.56v3.88h5.56v1.47h-5.56v4.31h6.56v1.47h-8.23V145.57Z"/><path d="M1136.33,151.77l4.47,6.41h-1.9l-3.57-5.16-3.58,5.16h-1.86l4.48-6.39-4.34-6.22h1.9l3.44,5,3.42-5h1.87Z"/><path d="M1143.82,158.18h-1.69V145.57h4.81c2.67,0,4.38,1.25,4.38,3.65s-1.71,3.68-4.38,3.68h-3.12Zm3-6.74c1.79,0,2.79-.79,2.79-2.22s-1-2.19-2.79-2.19h-3v4.41Z"/><path d="M1152.7,145.57h1.69v11.14h6.29v1.47h-8Z"/><path d="M1166.47,145.38c3.31,0,5.71,2.65,5.71,6.5s-2.4,6.5-5.71,6.5-5.72-2.66-5.72-6.5S1163.17,145.38,1166.47,145.38Zm0,1.49c-2.37,0-4,2-4,5s1.67,5,4,5,4-2,4-5S1168.85,146.87,1166.47,146.87Z"/><path d="M1175.57,158.18h-1.68V145.57h4.81c2.67,0,4.37,1.25,4.37,3.65a3.47,3.47,0,0,1-3.23,3.59l3.5,5.37h-1.94L1178,152.9h-2.44Zm3-6.74c1.79,0,2.79-.79,2.79-2.22s-1-2.19-2.79-2.19h-3v4.41Z"/><path d="M1193.15,145.57v1.48h-6.57v3.88h5.57v1.47h-5.57v4.31h6.57v1.47h-8.23V145.57Z"/><path d="M1206.61,145.57v1.48H1200v3.88h5.57v1.47H1200v4.31h6.57v1.47h-8.24V145.57Z"/><path d="M1213.81,151.77l4.46,6.41h-1.9l-3.56-5.16-3.59,5.16h-1.86l4.48-6.39-4.34-6.22h1.9l3.44,5,3.43-5h1.86Z"/><path d="M1221.29,158.18h-1.69V145.57h4.82c2.67,0,4.37,1.25,4.37,3.65s-1.7,3.68-4.37,3.68h-3.13Zm3-6.74c1.79,0,2.79-.79,2.79-2.22s-1-2.19-2.79-2.19h-3v4.41Z"/><path d="M1230.18,145.57h1.68v11.14h6.29v1.47h-8Z"/><path d="M1244,145.38c3.3,0,5.71,2.65,5.71,6.5s-2.41,6.5-5.71,6.5-5.73-2.66-5.73-6.5S1240.64,145.38,1244,145.38Zm0,1.49c-2.37,0-4,2-4,5s1.67,5,4,5,4-2,4-5S1246.32,146.87,1244,146.87Z"/><path d="M1253,158.18h-1.68V145.57h4.81c2.67,0,4.37,1.25,4.37,3.65a3.47,3.47,0,0,1-3.23,3.59l3.5,5.37h-1.93l-3.39-5.28H1253Zm3-6.74c1.79,0,2.8-.79,2.8-2.22s-1-2.19-2.8-2.19h-3v4.41Z"/><path d="M1270.63,145.57v1.48h-6.57v3.88h5.56v1.47h-5.56v4.31h6.57v1.47h-8.24V145.57Z"/><path d="M1284.08,145.57v1.48h-6.57v3.88h5.57v1.47h-5.57v4.31h6.57v1.47h-8.24V145.57Z"/><path d="M1291.28,151.77l4.46,6.41h-1.9l-3.56-5.16-3.58,5.16h-1.87l4.48-6.39-4.34-6.22h1.9l3.44,5,3.43-5h1.86Z"/><path d="M1298.76,158.18h-1.69V145.57h4.82c2.67,0,4.37,1.25,4.37,3.65s-1.7,3.68-4.37,3.68h-3.13Zm3-6.74c1.79,0,2.79-.79,2.79-2.22s-1-2.19-2.79-2.19h-3v4.41Z"/><path d="M1307.65,145.57h1.68v11.14h6.29v1.47h-8Z"/><path d="M1321.42,145.38c3.3,0,5.71,2.65,5.71,6.5s-2.41,6.5-5.71,6.5-5.73-2.66-5.73-6.5S1318.12,145.38,1321.42,145.38Zm0,1.49c-2.37,0-4,2-4,5s1.67,5,4,5,4-2,4-5S1323.79,146.87,1321.42,146.87Z"/><path d="M1330.52,158.18h-1.69V145.57h4.81c2.67,0,4.38,1.25,4.38,3.65a3.47,3.47,0,0,1-3.24,3.59l3.5,5.37h-1.93L1333,152.9h-2.44Zm3-6.74c1.8,0,2.8-.79,2.8-2.22s-1-2.19-2.8-2.19h-3v4.41Z"/><path d="M1348.1,145.57v1.48h-6.57v3.88h5.57v1.47h-5.57v4.31h6.57v1.47h-8.24V145.57Z"/><path d="M1361.55,145.57v1.48H1355v3.88h5.57v1.47H1355v4.31h6.57v1.47h-8.24V145.57Z"/><path d="M1368.75,151.77l4.46,6.41h-1.89l-3.57-5.16-3.58,5.16h-1.86l4.48-6.39-4.34-6.22h1.89l3.45,5,3.42-5h1.86Z"/><path d="M1376.23,158.18h-1.68V145.57h4.81c2.67,0,4.37,1.25,4.37,3.65s-1.7,3.68-4.37,3.68h-3.13Zm3-6.74c1.79,0,2.79-.79,2.79-2.22s-1-2.19-2.79-2.19h-3v4.41Z"/><path d="M1385.12,145.57h1.69v11.14h6.29v1.47h-8Z"/><path d="M1398.89,145.38c3.3,0,5.71,2.65,5.71,6.5s-2.41,6.5-5.71,6.5-5.73-2.66-5.73-6.5S1395.59,145.38,1398.89,145.38Zm0,1.49c-2.37,0-4,2-4,5s1.67,5,4,5,4-2,4-5S1401.26,146.87,1398.89,146.87Z"/><path d="M1408,158.18h-1.69V145.57h4.82c2.67,0,4.37,1.25,4.37,3.65a3.47,3.47,0,0,1-3.23,3.59l3.49,5.37h-1.93l-3.39-5.28H1408Zm3-6.74c1.79,0,2.79-.79,2.79-2.22s-1-2.19-2.79-2.19h-3v4.41Z"/><path d="M1425.57,145.57v1.48H1419v3.88h5.57v1.47H1419v4.31h6.57v1.47h-8.24V145.57Z"/><path d="M1439,145.57v1.48h-6.57v3.88H1438v1.47h-5.57v4.31H1439v1.47h-8.23V145.57Z"/><path d="M1446.22,151.77l4.47,6.41h-1.9l-3.57-5.16-3.58,5.16h-1.86l4.48-6.39-4.34-6.22h1.9l3.44,5,3.42-5h1.87Z"/><path d="M1024.32,127.61v1.48h-6.57V133h5.57v1.48h-5.57v4.3h6.57v1.48h-8.23V127.61Z"/><path d="M1031.52,133.81l4.47,6.42h-1.9l-3.57-5.17-3.58,5.17h-1.86l4.48-6.4-4.34-6.22h1.89l3.45,5,3.42-5h1.86Z"/><path d="M1039,140.23h-1.69V127.61h4.81c2.67,0,4.38,1.25,4.38,3.66s-1.71,3.67-4.38,3.67H1039Zm3-6.75c1.8,0,2.8-.79,2.8-2.21s-1-2.2-2.8-2.2h-3v4.41Z"/><path d="M1047.89,127.61h1.69v11.14h6.29v1.48h-8Z"/><path d="M1061.66,127.42c3.31,0,5.71,2.65,5.71,6.5s-2.4,6.5-5.71,6.5-5.72-2.65-5.72-6.5S1058.36,127.42,1061.66,127.42Zm0,1.49c-2.37,0-4,2-4,5s1.67,5,4,5,4-2,4-5S1064,128.91,1061.66,128.91Z"/><path d="M1070.76,140.23h-1.69V127.61h4.82c2.67,0,4.37,1.25,4.37,3.66a3.45,3.45,0,0,1-3.23,3.58l3.49,5.38h-1.93l-3.39-5.29h-2.44Zm3-6.75c1.79,0,2.79-.79,2.79-2.21s-1-2.2-2.79-2.2h-3v4.41Z"/><path d="M1088.34,127.61v1.48h-6.57V133h5.57v1.48h-5.57v4.3h6.57v1.48h-8.24V127.61Z"/><path d="M1101.8,127.61v1.48h-6.57V133h5.56v1.48h-5.56v4.3h6.57v1.48h-8.24V127.61Z"/><path d="M1109,133.81l4.46,6.42h-1.9l-3.57-5.17-3.58,5.17h-1.86l4.48-6.4-4.34-6.22h1.9l3.44,5,3.43-5h1.86Z"/><path d="M1116.48,140.23h-1.69V127.61h4.81c2.67,0,4.38,1.25,4.38,3.66s-1.71,3.67-4.38,3.67h-3.12Zm3-6.75c1.79,0,2.79-.79,2.79-2.21s-1-2.2-2.79-2.2h-3v4.41Z"/><path d="M1125.37,127.61h1.68v11.14h6.29v1.48h-8Z"/><path d="M1139.14,127.42c3.3,0,5.7,2.65,5.7,6.5s-2.4,6.5-5.7,6.5-5.73-2.65-5.73-6.5S1135.83,127.42,1139.14,127.42Zm0,1.49c-2.38,0-4,2-4,5s1.66,5,4,5,4-2,4-5S1141.51,128.91,1139.14,128.91Z"/><path d="M1148.23,140.23h-1.68V127.61h4.81c2.67,0,4.37,1.25,4.37,3.66a3.45,3.45,0,0,1-3.23,3.58l3.5,5.38h-1.94l-3.39-5.29h-2.44Zm3-6.75c1.79,0,2.79-.79,2.79-2.21s-1-2.2-2.79-2.2h-3v4.41Z"/><path d="M1165.82,127.61v1.48h-6.57V133h5.56v1.48h-5.56v4.3h6.57v1.48h-8.24V127.61Z"/><path d="M1179.27,127.61v1.48h-6.57V133h5.57v1.48h-5.57v4.3h6.57v1.48H1171V127.61Z"/><path d="M1186.47,133.81l4.46,6.42H1189l-3.56-5.17-3.59,5.17H1180l4.48-6.4-4.34-6.22h1.9l3.44,5,3.43-5h1.86Z"/><path d="M1194,140.23h-1.69V127.61h4.82c2.67,0,4.37,1.25,4.37,3.66s-1.7,3.67-4.37,3.67H1194Zm3-6.75c1.79,0,2.79-.79,2.79-2.21s-1-2.2-2.79-2.2h-3v4.41Z"/><path d="M1202.84,127.61h1.68v11.14h6.29v1.48h-8Z"/><path d="M1216.61,127.42c3.3,0,5.71,2.65,5.71,6.5s-2.41,6.5-5.71,6.5-5.73-2.65-5.73-6.5S1213.3,127.42,1216.61,127.42Zm0,1.49c-2.37,0-4,2-4,5s1.67,5,4,5,4-2,4-5S1219,128.91,1216.61,128.91Z"/><path d="M1225.7,140.23H1224V127.61h4.81c2.67,0,4.38,1.25,4.38,3.66a3.45,3.45,0,0,1-3.24,3.58l3.5,5.38h-1.93l-3.39-5.29h-2.45Zm3-6.75c1.8,0,2.8-.79,2.8-2.21s-1-2.2-2.8-2.2h-3v4.41Z"/><path d="M1243.29,127.61v1.48h-6.57V133h5.57v1.48h-5.57v4.3h6.57v1.48h-8.24V127.61Z"/><path d="M1256.74,127.61v1.48h-6.57V133h5.57v1.48h-5.57v4.3h6.57v1.48h-8.24V127.61Z"/><path d="M1263.94,133.81l4.46,6.42h-1.89l-3.57-5.17-3.58,5.17h-1.87l4.48-6.4-4.34-6.22h1.9l3.44,5,3.43-5h1.86Z"/><path d="M1271.42,140.23h-1.68V127.61h4.81c2.67,0,4.37,1.25,4.37,3.66s-1.7,3.67-4.37,3.67h-3.13Zm3-6.75c1.79,0,2.79-.79,2.79-2.21s-1-2.2-2.79-2.2h-3v4.41Z"/><path d="M1280.31,127.61H1282v11.14h6.28v1.48h-8Z"/><path d="M1294.08,127.42c3.3,0,5.71,2.65,5.71,6.5s-2.41,6.5-5.71,6.5-5.73-2.65-5.73-6.5S1290.78,127.42,1294.08,127.42Zm0,1.49c-2.37,0-4,2-4,5s1.67,5,4,5,4-2,4-5S1296.45,128.91,1294.08,128.91Z"/><path d="M1303.18,140.23h-1.69V127.61h4.81c2.67,0,4.38,1.25,4.38,3.66a3.45,3.45,0,0,1-3.23,3.58l3.49,5.38H1309l-3.39-5.29h-2.44Zm3-6.75c1.79,0,2.79-.79,2.79-2.21s-1-2.2-2.79-2.2h-3v4.41Z"/><path d="M1320.76,127.61v1.48h-6.57V133h5.57v1.48h-5.57v4.3h6.57v1.48h-8.24V127.61Z"/><path d="M1334.21,127.61v1.48h-6.57V133h5.57v1.48h-5.57v4.3h6.57v1.48H1326V127.61Z"/><path d="M1341.41,133.81l4.46,6.42H1344l-3.57-5.17-3.58,5.17H1335l4.48-6.4-4.34-6.22H1337l3.45,5,3.42-5h1.86Z"/><path d="M1348.89,140.23h-1.68V127.61H1352c2.67,0,4.37,1.25,4.37,3.66s-1.7,3.67-4.37,3.67h-3.13Zm3-6.75c1.79,0,2.8-.79,2.8-2.21s-1-2.2-2.8-2.2h-3v4.41Z"/><path d="M1357.78,127.61h1.69v11.14h6.29v1.48h-8Z"/><path d="M1371.55,127.42c3.3,0,5.71,2.65,5.71,6.5s-2.41,6.5-5.71,6.5-5.72-2.65-5.72-6.5S1368.25,127.42,1371.55,127.42Zm0,1.49c-2.37,0-4,2-4,5s1.67,5,4,5,4-2,4-5S1373.92,128.91,1371.55,128.91Z"/><path d="M1380.65,140.23H1379V127.61h4.82c2.67,0,4.37,1.25,4.37,3.66a3.45,3.45,0,0,1-3.23,3.58l3.49,5.38h-1.93l-3.39-5.29h-2.44Zm3-6.75c1.79,0,2.79-.79,2.79-2.21s-1-2.2-2.79-2.2h-3v4.41Z"/><path d="M1398.23,127.61v1.48h-6.57V133h5.57v1.48h-5.57v4.3h6.57v1.48H1390V127.61Z"/><path d="M1411.69,127.61v1.48h-6.57V133h5.56v1.48h-5.56v4.3h6.57v1.48h-8.24V127.61Z"/><path d="M1418.89,133.81l4.46,6.42h-1.9l-3.57-5.17-3.58,5.17h-1.86l4.48-6.4-4.34-6.22h1.9l3.44,5,3.42-5h1.87Z"/><path d="M1426.37,140.23h-1.69V127.61h4.81c2.67,0,4.38,1.25,4.38,3.66s-1.71,3.67-4.38,3.67h-3.12Zm3-6.75c1.79,0,2.79-.79,2.79-2.21s-1-2.2-2.79-2.2h-3v4.41Z"/><path d="M1435.25,127.61h1.69v11.14h6.29v1.48h-8Z"/><path d="M1074.13,109.66v1.47h-6.57V115h5.57v1.47h-5.57v4.3h6.57v1.48h-8.24V109.66Z"/><path d="M1081.33,115.86l4.46,6.41h-1.89l-3.57-5.16-3.58,5.16h-1.86l4.48-6.39-4.34-6.22h1.89l3.45,5,3.42-5h1.86Z"/><path d="M1088.81,122.27h-1.68V109.66h4.81c2.67,0,4.37,1.25,4.37,3.65s-1.7,3.67-4.37,3.67h-3.13Zm3-6.74c1.79,0,2.8-.8,2.8-2.22s-1-2.19-2.8-2.19h-3v4.41Z"/><path d="M1097.7,109.66h1.69v11.13h6.29v1.48h-8Z"/><path d="M1111.47,109.46c3.3,0,5.71,2.66,5.71,6.5s-2.41,6.5-5.71,6.5-5.73-2.65-5.73-6.5S1108.17,109.46,1111.47,109.46Zm0,1.5c-2.37,0-4,2-4,5s1.67,5,4,5,4-2,4-5S1113.84,111,1111.47,111Z"/><path d="M1120.57,122.27h-1.69V109.66h4.82c2.67,0,4.37,1.25,4.37,3.65a3.47,3.47,0,0,1-3.23,3.59l3.49,5.37h-1.93L1123,117h-2.44Zm3-6.74c1.79,0,2.79-.8,2.79-2.22s-1-2.19-2.79-2.19h-3v4.41Z"/><path d="M1138.15,109.66v1.47h-6.57V115h5.57v1.47h-5.57v4.3h6.57v1.48h-8.24V109.66Z"/><path d="M1151.6,109.66v1.47H1145V115h5.56v1.47H1145v4.3h6.56v1.48h-8.23V109.66Z"/><path d="M1158.8,115.86l4.47,6.41h-1.9l-3.57-5.16-3.58,5.16h-1.86l4.48-6.39-4.34-6.22h1.9l3.44,5,3.42-5h1.87Z"/><path d="M1166.29,122.27h-1.69V109.66h4.81c2.67,0,4.38,1.25,4.38,3.65s-1.71,3.67-4.38,3.67h-3.12Zm3-6.74c1.79,0,2.79-.8,2.79-2.22s-1-2.19-2.79-2.19h-3v4.41Z"/><path d="M1175.17,109.66h1.69v11.13h6.29v1.48h-8Z"/><path d="M1188.94,109.46c3.31,0,5.71,2.66,5.71,6.5s-2.4,6.5-5.71,6.5-5.72-2.65-5.72-6.5S1185.64,109.46,1188.94,109.46Zm0,1.5c-2.37,0-4,2-4,5s1.67,5,4,5,4-2,4-5S1191.32,111,1188.94,111Z"/><path d="M1198,122.27h-1.68V109.66h4.81c2.67,0,4.37,1.25,4.37,3.65a3.47,3.47,0,0,1-3.23,3.59l3.5,5.37h-1.94l-3.39-5.29H1198Zm3-6.74c1.79,0,2.79-.8,2.79-2.22s-1-2.19-2.79-2.19h-3v4.41Z"/><path d="M1215.62,109.66v1.47h-6.57V115h5.57v1.47h-5.57v4.3h6.57v1.48h-8.23V109.66Z"/><path d="M1229.08,109.66v1.47h-6.57V115h5.57v1.47h-5.57v4.3h6.57v1.48h-8.24V109.66Z"/><path d="M1236.28,115.86l4.46,6.41h-1.9l-3.56-5.16-3.59,5.16h-1.86l4.48-6.39-4.34-6.22h1.9l3.44,5,3.43-5h1.86Z"/><path d="M1243.76,122.27h-1.69V109.66h4.82c2.67,0,4.37,1.25,4.37,3.65s-1.7,3.67-4.37,3.67h-3.13Zm3-6.74c1.79,0,2.79-.8,2.79-2.22s-1-2.19-2.79-2.19h-3v4.41Z"/><path d="M1252.65,109.66h1.68v11.13h6.29v1.48h-8Z"/><path d="M1266.42,109.46c3.3,0,5.7,2.66,5.7,6.5s-2.4,6.5-5.7,6.5-5.73-2.65-5.73-6.5S1263.11,109.46,1266.42,109.46Zm0,1.5c-2.38,0-4,2-4,5s1.66,5,4,5,4-2,4-5S1268.79,111,1266.42,111Z"/><path d="M1275.51,122.27h-1.68V109.66h4.81c2.67,0,4.37,1.25,4.37,3.65a3.47,3.47,0,0,1-3.23,3.59l3.5,5.37h-1.93L1278,117h-2.45Zm3-6.74c1.79,0,2.8-.8,2.8-2.22s-1-2.19-2.8-2.19h-3v4.41Z"/><path d="M1293.1,109.66v1.47h-6.57V115h5.56v1.47h-5.56v4.3h6.57v1.48h-8.24V109.66Z"/><path d="M1306.55,109.66v1.47H1300V115h5.57v1.47H1300v4.3h6.57v1.48h-8.24V109.66Z"/><path d="M1313.75,115.86l4.46,6.41h-1.9l-3.56-5.16-3.59,5.16h-1.86l4.48-6.39-4.34-6.22h1.9l3.44,5,3.43-5h1.86Z"/><path d="M1321.23,122.27h-1.68V109.66h4.81c2.67,0,4.37,1.25,4.37,3.65s-1.7,3.67-4.37,3.67h-3.13Zm3-6.74c1.79,0,2.79-.8,2.79-2.22s-1-2.19-2.79-2.19h-3v4.41Z"/><path d="M1330.12,109.66h1.68v11.13h6.29v1.48h-8Z"/><path d="M1343.89,109.46c3.3,0,5.71,2.66,5.71,6.5s-2.41,6.5-5.71,6.5-5.73-2.65-5.73-6.5S1340.59,109.46,1343.89,109.46Zm0,1.5c-2.37,0-4,2-4,5s1.67,5,4,5,4-2,4-5S1346.26,111,1343.89,111Z"/><path d="M1353,122.27h-1.69V109.66h4.81c2.67,0,4.38,1.25,4.38,3.65a3.47,3.47,0,0,1-3.24,3.59l3.5,5.37h-1.93l-3.39-5.29H1353Zm3-6.74c1.8,0,2.8-.8,2.8-2.22s-1-2.19-2.8-2.19h-3v4.41Z"/><path d="M1370.57,109.66v1.47H1364V115h5.57v1.47H1364v4.3h6.57v1.48h-8.24V109.66Z"/><path d="M1384,109.66v1.47h-6.57V115H1383v1.47h-5.57v4.3H1384v1.48h-8.24V109.66Z"/><path d="M1391.22,115.86l4.46,6.41h-1.89l-3.57-5.16-3.58,5.16h-1.86l4.47-6.39-4.33-6.22h1.89l3.45,5,3.42-5h1.86Z"/><path d="M1398.7,122.27H1397V109.66h4.81c2.67,0,4.37,1.25,4.37,3.65s-1.7,3.67-4.37,3.67h-3.13Zm3-6.74c1.79,0,2.79-.8,2.79-2.22s-1-2.19-2.79-2.19h-3v4.41Z"/><path d="M1407.59,109.66h1.69v11.13h6.29v1.48h-8Z"/><path d="M1421.36,109.46c3.3,0,5.71,2.66,5.71,6.5s-2.41,6.5-5.71,6.5-5.73-2.65-5.73-6.5S1418.06,109.46,1421.36,109.46Zm0,1.5c-2.37,0-4,2-4,5s1.67,5,4,5,4-2,4-5S1423.73,111,1421.36,111Z"/><path d="M1430.46,122.27h-1.69V109.66h4.82c2.67,0,4.37,1.25,4.37,3.65a3.47,3.47,0,0,1-3.23,3.59l3.49,5.37h-1.93L1432.9,117h-2.44Zm3-6.74c1.79,0,2.79-.8,2.79-2.22s-1-2.19-2.79-2.19h-3v4.41Z"/><path d="M1448,109.66v1.47h-6.57V115H1447v1.47h-5.57v4.3H1448v1.48h-8.24V109.66Z"/><path d="M1123.94,91.7v1.48h-6.57v3.88h5.57v1.48h-5.57v4.3h6.57v1.47h-8.24V91.7Z"/><path d="M1131.14,97.9l4.46,6.41h-1.89l-3.57-5.16-3.58,5.16h-1.87l4.48-6.39-4.33-6.22h1.89l3.45,5,3.42-5h1.86Z"/><path d="M1138.62,104.31h-1.68V91.7h4.81c2.67,0,4.37,1.25,4.37,3.66s-1.7,3.67-4.37,3.67h-3.13Zm3-6.74c1.79,0,2.79-.79,2.79-2.21s-1-2.2-2.79-2.2h-3v4.41Z"/><path d="M1147.51,91.7h1.69v11.14h6.28v1.47h-8Z"/><path d="M1161.28,91.51c3.3,0,5.71,2.65,5.71,6.5s-2.41,6.5-5.71,6.5-5.73-2.66-5.73-6.5S1158,91.51,1161.28,91.51Zm0,1.49c-2.37,0-4,2-4,5s1.67,5,4,5,4-2,4-5S1163.65,93,1161.28,93Z"/><path d="M1170.38,104.31h-1.69V91.7h4.81c2.67,0,4.38,1.25,4.38,3.66a3.45,3.45,0,0,1-3.23,3.58l3.49,5.37h-1.93L1172.82,99h-2.44Zm3-6.74c1.79,0,2.79-.79,2.79-2.21s-1-2.2-2.79-2.2h-3v4.41Z"/><path d="M1188,91.7v1.48h-6.57v3.88H1187v1.48h-5.57v4.3H1188v1.47h-8.24V91.7Z"/><path d="M1201.41,91.7v1.48h-6.57v3.88h5.57v1.48h-5.57v4.3h6.57v1.47h-8.23V91.7Z"/><path d="M1208.61,97.9l4.47,6.41h-1.9l-3.57-5.16-3.58,5.16h-1.86l4.48-6.39-4.34-6.22h1.89l3.45,5,3.42-5h1.87Z"/><path d="M1216.1,104.31h-1.69V91.7h4.81c2.67,0,4.38,1.25,4.38,3.66s-1.71,3.67-4.38,3.67h-3.12Zm3-6.74c1.8,0,2.8-.79,2.8-2.21s-1-2.2-2.8-2.2h-3v4.41Z"/><path d="M1225,91.7h1.69v11.14H1233v1.47h-8Z"/><path d="M1238.75,91.51c3.31,0,5.71,2.65,5.71,6.5s-2.4,6.5-5.71,6.5S1233,101.85,1233,98,1235.45,91.51,1238.75,91.51Zm0,1.49c-2.37,0-4,2-4,5s1.67,5,4,5,4-2,4-5S1241.12,93,1238.75,93Z"/><path d="M1247.85,104.31h-1.69V91.7H1251c2.67,0,4.37,1.25,4.37,3.66a3.45,3.45,0,0,1-3.23,3.58l3.49,5.37h-1.93L1250.29,99h-2.44Zm3-6.74c1.79,0,2.79-.79,2.79-2.21s-1-2.2-2.79-2.2h-3v4.41Z"/><path d="M1265.43,91.7v1.48h-6.57v3.88h5.57v1.48h-5.57v4.3h6.57v1.47h-8.23V91.7Z"/><path d="M1278.89,91.7v1.48h-6.57v3.88h5.57v1.48h-5.57v4.3h6.57v1.47h-8.24V91.7Z"/><path d="M1286.09,97.9l4.46,6.41h-1.9l-3.56-5.16-3.59,5.16h-1.86l4.48-6.39-4.34-6.22h1.9l3.44,5,3.43-5h1.86Z"/><path d="M1293.57,104.31h-1.69V91.7h4.82c2.67,0,4.37,1.25,4.37,3.66s-1.7,3.67-4.37,3.67h-3.13Zm3-6.74c1.79,0,2.79-.79,2.79-2.21s-1-2.2-2.79-2.2h-3v4.41Z"/><path d="M1302.46,91.7h1.68v11.14h6.29v1.47h-8Z"/><path d="M1316.23,91.51c3.3,0,5.7,2.65,5.7,6.5s-2.4,6.5-5.7,6.5-5.73-2.66-5.73-6.5S1312.92,91.51,1316.23,91.51Zm0,1.49c-2.38,0-4,2-4,5s1.66,5,4,5,4-2,4-5S1318.6,93,1316.23,93Z"/><path d="M1325.32,104.31h-1.68V91.7h4.81c2.67,0,4.37,1.25,4.37,3.66a3.45,3.45,0,0,1-3.23,3.58l3.5,5.37h-1.94L1327.76,99h-2.44Zm3-6.74c1.79,0,2.79-.79,2.79-2.21s-1-2.2-2.79-2.2h-3v4.41Z"/><path d="M1342.91,91.7v1.48h-6.57v3.88h5.56v1.48h-5.56v4.3h6.57v1.47h-8.24V91.7Z"/><path d="M1356.36,91.7v1.48h-6.57v3.88h5.57v1.48h-5.57v4.3h6.57v1.47h-8.24V91.7Z"/><path d="M1363.56,97.9l4.46,6.41h-1.9l-3.56-5.16-3.59,5.16h-1.86l4.48-6.39-4.34-6.22h1.9l3.44,5,3.43-5h1.86Z"/><path d="M1371,104.31h-1.69V91.7h4.82c2.67,0,4.37,1.25,4.37,3.66s-1.7,3.67-4.37,3.67H1371Zm3-6.74c1.79,0,2.79-.79,2.79-2.21s-1-2.2-2.79-2.2h-3v4.41Z"/><path d="M1379.93,91.7h1.68v11.14h6.29v1.47h-8Z"/><path d="M1393.7,91.51c3.3,0,5.71,2.65,5.71,6.5s-2.41,6.5-5.71,6.5S1388,101.85,1388,98,1390.4,91.51,1393.7,91.51Zm0,1.49c-2.37,0-4,2-4,5s1.67,5,4,5,4-2,4-5S1396.07,93,1393.7,93Z"/><path d="M1402.8,104.31h-1.69V91.7h4.81c2.67,0,4.38,1.25,4.38,3.66a3.45,3.45,0,0,1-3.24,3.58l3.5,5.37h-1.93L1405.24,99h-2.44Zm3-6.74c1.8,0,2.8-.79,2.8-2.21s-1-2.2-2.8-2.2h-3v4.41Z"/><path d="M1420.38,91.7v1.48h-6.57v3.88h5.57v1.48h-5.57v4.3h6.57v1.47h-8.24V91.7Z"/><path d="M1433.83,91.7v1.48h-6.57v3.88h5.57v1.48h-5.57v4.3h6.57v1.47h-8.24V91.7Z"/><path d="M1441,97.9l4.46,6.41h-1.89L1440,99.15l-3.58,5.16h-1.87l4.48-6.39-4.33-6.22h1.89l3.45,5,3.42-5h1.86Z"/><path d="M1174.07,73.75v1.47h-6.56V79.1h5.56v1.48h-5.56v4.3h6.56v1.48h-8.23V73.75Z"/><path d="M1181.27,80l4.47,6.41h-1.9l-3.57-5.17-3.58,5.17h-1.86l4.48-6.4L1175,73.75h1.9l3.44,5,3.42-5h1.87Z"/><path d="M1188.76,86.36h-1.69V73.75h4.81c2.67,0,4.38,1.24,4.38,3.65s-1.71,3.67-4.38,3.67h-3.12Zm3-6.75c1.79,0,2.79-.79,2.79-2.21s-1-2.2-2.79-2.2h-3v4.41Z"/><path d="M1197.64,73.75h1.69V84.88h6.29v1.48h-8Z"/><path d="M1211.41,73.55c3.31,0,5.71,2.65,5.71,6.5s-2.4,6.5-5.71,6.5-5.72-2.65-5.72-6.5S1208.11,73.55,1211.41,73.55Zm0,1.5c-2.37,0-4,2-4,5s1.67,5,4,5,4-2,4-5S1213.79,75.05,1211.41,75.05Z"/><path d="M1220.51,86.36h-1.68V73.75h4.81c2.67,0,4.37,1.24,4.37,3.65a3.45,3.45,0,0,1-3.23,3.58l3.5,5.38h-1.94L1223,81.07h-2.44Zm3-6.75c1.79,0,2.79-.79,2.79-2.21s-1-2.2-2.79-2.2h-3v4.41Z"/><path d="M1238.09,73.75v1.47h-6.57V79.1h5.57v1.48h-5.57v4.3h6.57v1.48h-8.23V73.75Z"/><path d="M1251.55,73.75v1.47H1245V79.1h5.57v1.48H1245v4.3h6.57v1.48h-8.24V73.75Z"/><path d="M1258.75,80l4.46,6.41h-1.9l-3.56-5.17-3.59,5.17h-1.86l4.48-6.4-4.34-6.21h1.9l3.44,5,3.43-5h1.86Z"/><path d="M1266.23,86.36h-1.69V73.75h4.82c2.67,0,4.37,1.24,4.37,3.65s-1.7,3.67-4.37,3.67h-3.13Zm3-6.75c1.79,0,2.79-.79,2.79-2.21s-1-2.2-2.79-2.2h-3v4.41Z"/><path d="M1275.12,73.75h1.68V84.88h6.29v1.48h-8Z"/><path d="M1288.89,73.55c3.3,0,5.71,2.65,5.71,6.5s-2.41,6.5-5.71,6.5-5.73-2.65-5.73-6.5S1285.58,73.55,1288.89,73.55Zm0,1.5c-2.37,0-4,2-4,5s1.67,5,4,5,4-2,4-5S1291.26,75.05,1288.89,75.05Z"/><path d="M1298,86.36h-1.68V73.75h4.81c2.67,0,4.37,1.24,4.37,3.65a3.44,3.44,0,0,1-3.23,3.58l3.5,5.38h-1.93l-3.39-5.29H1298Zm3-6.75c1.79,0,2.8-.79,2.8-2.21s-1-2.2-2.8-2.2h-3v4.41Z"/><path d="M1315.57,73.75v1.47H1309V79.1h5.57v1.48H1309v4.3h6.57v1.48h-8.24V73.75Z"/><path d="M1329,73.75v1.47h-6.57V79.1H1328v1.48h-5.57v4.3H1329v1.48h-8.24V73.75Z"/><path d="M1336.22,80l4.46,6.41h-1.9l-3.56-5.17-3.58,5.17h-1.87l4.48-6.4-4.34-6.21h1.9l3.44,5,3.43-5h1.86Z"/><path d="M1343.7,86.36H1342V73.75h4.81c2.67,0,4.37,1.24,4.37,3.65s-1.7,3.67-4.37,3.67h-3.13Zm3-6.75c1.79,0,2.79-.79,2.79-2.21s-1-2.2-2.79-2.2h-3v4.41Z"/><path d="M1352.59,73.75h1.68V84.88h6.29v1.48h-8Z"/><path d="M1366.36,73.55c3.3,0,5.71,2.65,5.71,6.5s-2.41,6.5-5.71,6.5-5.73-2.65-5.73-6.5S1363.06,73.55,1366.36,73.55Zm0,1.5c-2.37,0-4,2-4,5s1.67,5,4,5,4-2,4-5S1368.73,75.05,1366.36,75.05Z"/><path d="M1375.46,86.36h-1.69V73.75h4.81c2.67,0,4.38,1.24,4.38,3.65a3.45,3.45,0,0,1-3.24,3.58l3.5,5.38h-1.93l-3.39-5.29h-2.44Zm3-6.75c1.8,0,2.8-.79,2.8-2.21s-1-2.2-2.8-2.2h-3v4.41Z"/><path d="M1393,73.75v1.47h-6.57V79.1H1392v1.48h-5.57v4.3H1393v1.48h-8.24V73.75Z"/><path d="M1406.49,73.75v1.47h-6.57V79.1h5.57v1.48h-5.57v4.3h6.57v1.48h-8.24V73.75Z"/><path d="M1413.69,80l4.46,6.41h-1.89l-3.57-5.17-3.58,5.17h-1.87l4.48-6.4-4.33-6.21h1.89l3.45,5,3.42-5H1418Z"/><path d="M1421.17,86.36h-1.68V73.75h4.81c2.67,0,4.37,1.24,4.37,3.65s-1.7,3.67-4.37,3.67h-3.13Zm3-6.75c1.79,0,2.8-.79,2.8-2.21s-1-2.2-2.8-2.2h-3v4.41Z"/><path d="M1430.06,73.75h1.69V84.88H1438v1.48h-8Z"/><path d="M1443.83,73.55c3.3,0,5.71,2.65,5.71,6.5s-2.41,6.5-5.71,6.5-5.73-2.65-5.73-6.5S1440.53,73.55,1443.83,73.55Zm0,1.5c-2.37,0-4,2-4,5s1.67,5,4,5,4-2,4-5S1446.2,75.05,1443.83,75.05Z"/><path d="M1224,55.79v1.48h-6.56v3.88H1223v1.47h-5.56v4.31H1224V68.4h-8.23V55.79Z"/><path d="M1231.16,62l4.47,6.41h-1.9l-3.57-5.16-3.58,5.16h-1.86L1229.2,62l-4.34-6.22h1.9l3.44,5,3.42-5h1.87Z"/><path d="M1238.65,68.4H1237V55.79h4.81c2.67,0,4.38,1.25,4.38,3.65s-1.71,3.67-4.38,3.67h-3.12Zm3-6.74c1.79,0,2.79-.79,2.79-2.22s-1-2.19-2.79-2.19h-3v4.41Z"/><path d="M1247.53,55.79h1.69V66.93h6.29V68.4h-8Z"/><path d="M1261.3,55.6c3.31,0,5.71,2.65,5.71,6.5s-2.4,6.5-5.71,6.5-5.72-2.66-5.72-6.5S1258,55.6,1261.3,55.6Zm0,1.49c-2.37,0-4,2-4,5s1.67,5,4,5,4-2,4-5S1263.68,57.09,1261.3,57.09Z"/><path d="M1270.4,68.4h-1.68V55.79h4.81c2.67,0,4.37,1.25,4.37,3.65a3.47,3.47,0,0,1-3.23,3.59l3.5,5.37h-1.94l-3.39-5.29h-2.44Zm3-6.74c1.79,0,2.79-.79,2.79-2.22s-1-2.19-2.79-2.19h-3v4.41Z"/><path d="M1288,55.79v1.48h-6.57v3.88H1287v1.47h-5.57v4.31H1288V68.4h-8.23V55.79Z"/><path d="M1301.44,55.79v1.48h-6.57v3.88h5.57v1.47h-5.57v4.31h6.57V68.4h-8.24V55.79Z"/><path d="M1308.64,62l4.46,6.41h-1.9l-3.56-5.16-3.59,5.16h-1.86l4.48-6.39-4.34-6.22h1.9l3.44,5,3.43-5H1313Z"/><path d="M1316.12,68.4h-1.69V55.79h4.82c2.67,0,4.37,1.25,4.37,3.65s-1.7,3.67-4.37,3.67h-3.13Zm3-6.74c1.79,0,2.79-.79,2.79-2.22s-1-2.19-2.79-2.19h-3v4.41Z"/><path d="M1325,55.79h1.68V66.93H1333V68.4h-8Z"/><path d="M1338.78,55.6c3.3,0,5.71,2.65,5.71,6.5s-2.41,6.5-5.71,6.5-5.73-2.66-5.73-6.5S1335.47,55.6,1338.78,55.6Zm0,1.49c-2.37,0-4,2-4,5s1.67,5,4,5,4-2,4-5S1341.15,57.09,1338.78,57.09Z"/><path d="M1347.87,68.4h-1.68V55.79H1351c2.67,0,4.37,1.25,4.37,3.65a3.46,3.46,0,0,1-3.23,3.59l3.5,5.37h-1.93l-3.39-5.29h-2.45Zm3-6.74c1.79,0,2.8-.79,2.8-2.22s-1-2.19-2.8-2.19h-3v4.41Z"/><path d="M1365.46,55.79v1.48h-6.57v3.88h5.57v1.47h-5.57v4.31h6.57V68.4h-8.24V55.79Z"/><path d="M1378.91,55.79v1.48h-6.57v3.88h5.57v1.47h-5.57v4.31h6.57V68.4h-8.24V55.79Z"/><path d="M1386.11,62l4.46,6.41h-1.9l-3.56-5.16-3.58,5.16h-1.87l4.48-6.39-4.34-6.22h1.9l3.44,5,3.43-5h1.86Z"/><path d="M1393.59,68.4h-1.68V55.79h4.81c2.67,0,4.37,1.25,4.37,3.65s-1.7,3.67-4.37,3.67h-3.13Zm3-6.74c1.79,0,2.79-.79,2.79-2.22s-1-2.19-2.79-2.19h-3v4.41Z"/><path d="M1402.48,55.79h1.68V66.93h6.29V68.4h-8Z"/><path d="M1416.25,55.6c3.3,0,5.71,2.65,5.71,6.5s-2.41,6.5-5.71,6.5-5.73-2.66-5.73-6.5S1413,55.6,1416.25,55.6Zm0,1.49c-2.37,0-4,2-4,5s1.67,5,4,5,4-2,4-5S1418.62,57.09,1416.25,57.09Z"/><path d="M1425.35,68.4h-1.69V55.79h4.81c2.67,0,4.38,1.25,4.38,3.65a3.47,3.47,0,0,1-3.24,3.59l3.5,5.37h-1.93l-3.39-5.29h-2.44Zm3-6.74c1.8,0,2.8-.79,2.8-2.22s-1-2.19-2.8-2.19h-3v4.41Z"/><path d="M1442.93,55.79v1.48h-6.57v3.88h5.57v1.47h-5.57v4.31h6.57V68.4h-8.24V55.79Z"/><path d="M1273.85,37.83v1.48h-6.56v3.88h5.56v1.48h-5.56V49h6.56v1.48h-8.23V37.83Z"/><path d="M1281.05,44l4.47,6.42h-1.9l-3.57-5.17-3.58,5.17h-1.86l4.48-6.4-4.34-6.22h1.9l3.44,5,3.42-5h1.87Z"/><path d="M1288.54,50.45h-1.69V37.83h4.81c2.67,0,4.38,1.25,4.38,3.66s-1.71,3.67-4.38,3.67h-3.12Zm3-6.75c1.79,0,2.79-.79,2.79-2.21s-1-2.2-2.79-2.2h-3V43.7Z"/><path d="M1297.42,37.83h1.69V49h6.29v1.48h-8Z"/><path d="M1311.19,37.64c3.31,0,5.71,2.65,5.71,6.5s-2.4,6.5-5.71,6.5-5.72-2.65-5.72-6.5S1307.89,37.64,1311.19,37.64Zm0,1.49c-2.37,0-4,2-4,5s1.67,5,4,5,4-2,4-5S1313.57,39.13,1311.19,39.13Z"/><path d="M1320.29,50.45h-1.68V37.83h4.81c2.67,0,4.37,1.25,4.37,3.66a3.45,3.45,0,0,1-3.23,3.58l3.5,5.38h-1.94l-3.39-5.29h-2.44Zm3-6.75c1.79,0,2.79-.79,2.79-2.21s-1-2.2-2.79-2.2h-3V43.7Z"/><path d="M1337.87,37.83v1.48h-6.57v3.88h5.57v1.48h-5.57V49h6.57v1.48h-8.23V37.83Z"/><path d="M1351.33,37.83v1.48h-6.57v3.88h5.57v1.48h-5.57V49h6.57v1.48h-8.24V37.83Z"/><path d="M1358.53,44l4.46,6.42h-1.9l-3.56-5.17-3.59,5.17h-1.86l4.48-6.4-4.34-6.22h1.9l3.44,5,3.43-5h1.86Z"/><path d="M1366,50.45h-1.69V37.83h4.82c2.67,0,4.37,1.25,4.37,3.66s-1.7,3.67-4.37,3.67H1366Zm3-6.75c1.79,0,2.79-.79,2.79-2.21s-1-2.2-2.79-2.2h-3V43.7Z"/><path d="M1374.9,37.83h1.68V49h6.29v1.48h-8Z"/><path d="M1388.67,37.64c3.3,0,5.71,2.65,5.71,6.5s-2.41,6.5-5.71,6.5-5.73-2.65-5.73-6.5S1385.36,37.64,1388.67,37.64Zm0,1.49c-2.37,0-4,2-4,5s1.67,5,4,5,4-2,4-5S1391,39.13,1388.67,39.13Z"/><path d="M1397.76,50.45h-1.68V37.83h4.81c2.67,0,4.37,1.25,4.37,3.66a3.44,3.44,0,0,1-3.23,3.58l3.5,5.38h-1.93l-3.39-5.29h-2.45Zm3-6.75c1.79,0,2.8-.79,2.8-2.21s-1-2.2-2.8-2.2h-3V43.7Z"/><path d="M1415.35,37.83v1.48h-6.57v3.88h5.57v1.48h-5.57V49h6.57v1.48h-8.24V37.83Z"/><path d="M1428.8,37.83v1.48h-6.57v3.88h5.57v1.48h-5.57V49h6.57v1.48h-8.24V37.83Z"/><path d="M1436,44l4.46,6.42h-1.9L1435,45.28l-3.58,5.17h-1.87l4.48-6.4-4.34-6.22h1.9l3.44,5,3.43-5h1.86Z"/><path d="M1323.81,19.88v1.47h-6.56v3.88h5.56v1.48h-5.56V31h6.56v1.48h-8.23V19.88Z"/><path d="M1331,26.08l4.47,6.41h-1.9L1330,27.33l-3.58,5.16h-1.86l4.48-6.39-4.34-6.22h1.9l3.44,4.95,3.42-4.95h1.87Z"/><path d="M1338.5,32.49h-1.69V19.88h4.81c2.67,0,4.38,1.24,4.38,3.65s-1.71,3.67-4.38,3.67h-3.12Zm3-6.75c1.79,0,2.79-.79,2.79-2.21s-1-2.19-2.79-2.19h-3v4.4Z"/><path d="M1347.38,19.88h1.69V31h6.29v1.48h-8Z"/><path d="M1361.15,19.68c3.31,0,5.71,2.66,5.71,6.5s-2.4,6.5-5.71,6.5-5.72-2.65-5.72-6.5S1357.85,19.68,1361.15,19.68Zm0,1.5c-2.37,0-4,2-4,5s1.67,5,4,5,4-2,4-5S1363.53,21.18,1361.15,21.18Z"/><path d="M1370.25,32.49h-1.68V19.88h4.81c2.67,0,4.37,1.24,4.37,3.65a3.45,3.45,0,0,1-3.23,3.58l3.5,5.38h-1.94l-3.39-5.29h-2.44Zm3-6.75c1.79,0,2.79-.79,2.79-2.21s-1-2.19-2.79-2.19h-3v4.4Z"/><path d="M1387.83,19.88v1.47h-6.57v3.88h5.57v1.48h-5.57V31h6.57v1.48h-8.23V19.88Z"/><path d="M1401.29,19.88v1.47h-6.57v3.88h5.57v1.48h-5.57V31h6.57v1.48h-8.24V19.88Z"/><path d="M1408.49,26.08l4.46,6.41h-1.9l-3.56-5.16-3.59,5.16H1402l4.48-6.39-4.34-6.22h1.9l3.44,4.95,3.43-4.95h1.86Z"/><path d="M1416,32.49h-1.69V19.88h4.82c2.67,0,4.37,1.24,4.37,3.65s-1.7,3.67-4.37,3.67H1416Zm3-6.75c1.79,0,2.79-.79,2.79-2.21s-1-2.19-2.79-2.19h-3v4.4Z"/><path d="M1424.86,19.88h1.68V31h6.29v1.48h-8Z"/><path d="M1438.63,19.68c3.3,0,5.71,2.66,5.71,6.5s-2.41,6.5-5.71,6.5-5.73-2.65-5.73-6.5S1435.32,19.68,1438.63,19.68Zm0,1.5c-2.37,0-4,2-4,5s1.67,5,4,5,4-2,4-5S1441,21.18,1438.63,21.18Z"/><path d="M1374,1.92V3.4h-6.57V7.28H1373V8.75h-5.57v4.31H1374v1.47h-8.24V1.92Z"/><path d="M1381.15,8.12l4.46,6.41h-1.9l-3.56-5.16-3.59,5.16h-1.86l4.48-6.39-4.34-6.22h1.9l3.44,5,3.43-4.95h1.86Z"/><path d="M1388.63,14.53h-1.69V1.92h4.82c2.67,0,4.37,1.25,4.37,3.65s-1.7,3.68-4.37,3.68h-3.13Zm3-6.74c1.79,0,2.79-.79,2.79-2.22s-1-2.19-2.79-2.19h-3V7.79Z"/><path d="M1397.52,1.92h1.68V13.06h6.29v1.47h-8Z"/><path d="M1411.29,1.73c3.3,0,5.71,2.65,5.71,6.5s-2.41,6.5-5.71,6.5-5.73-2.66-5.73-6.5S1408,1.73,1411.29,1.73Zm0,1.49c-2.37,0-4,2-4,5s1.67,5,4,5,4-2,4-5S1413.66,3.22,1411.29,3.22Z"/><path d="M1420.38,14.53h-1.68V1.92h4.81c2.67,0,4.38,1.25,4.38,3.65a3.47,3.47,0,0,1-3.24,3.59l3.5,5.37h-1.93l-3.39-5.28h-2.45Zm3-6.74c1.8,0,2.8-.79,2.8-2.22s-1-2.19-2.8-2.19h-3V7.79Z"/><path d="M1438,1.92V3.4h-6.57V7.28H1437V8.75h-5.57v4.31H1438v1.47h-8.24V1.92Z"/></svg>